<?xml version="1.0" encoding="UTF-8"?>
<svg version="1.1" xmlns="http://www.w3.org/2000/svg" width="512" height="512">
<path d="M0 0 C0.78487793 0.16628906 1.56975586 0.33257812 2.37841797 0.50390625 C30.53595754 6.6936361 56.79085452 20.37124702 77.86328125 40.015625 C79.75564419 41.77306627 81.69255249 43.42426496 83.6875 45.0625 C112.05283118 69.33794622 129.2101139 110.53048026 133 147 C133.37337757 152.99478922 133.3895081 158.99564211 133.375 165 C133.37478851 165.81126343 133.37457703 166.62252686 133.37435913 167.45837402 C133.34008764 180.6686532 132.3310764 193.1683762 129 206 C128.81808105 206.74507812 128.63616211 207.49015625 128.44873047 208.2578125 C121.19224039 237.62098234 104.91959089 263.46782958 84 285 C83.20843506 285.82661133 83.20843506 285.82661133 82.40087891 286.66992188 C78.21075123 290.97271927 73.78376737 294.74886436 69 298.375 C68.25943359 298.93662842 67.51886719 299.49825684 66.75585938 300.0769043 C40.93697781 319.36113939 8.33049272 332.8976721 -24.22265625 333.23828125 C-25.38369621 333.25310799 -25.38369621 333.25310799 -26.56819153 333.26823425 C-58.66865684 333.59349478 -87.55200029 328.82580164 -116 313 C-117.0621875 312.42507813 -118.124375 311.85015625 -119.21875 311.2578125 C-147.76016229 295.29521852 -170.09630172 270.88626021 -185 242 C-185.31952637 241.38157227 -185.63905273 240.76314453 -185.96826172 240.12597656 C-206.17931857 200.38002995 -208.43800424 153.65425325 -194.83691406 111.47802734 C-188.85563824 93.76800703 -180.33347261 77.83297885 -169 63 C-167.95585937 61.61748047 -167.95585937 61.61748047 -166.890625 60.20703125 C-138.94020061 24.63854007 -98.37382605 3.14303738 -53.77734375 -2.58984375 C-35.97021035 -4.40812325 -17.50335734 -3.75573623 0 0 Z " fill="#015AAB" transform="translate(292,93)"/>
<path d="M0 0 C7.93647475 0.29394351 14.29151837 3.15935026 19.86328125 8.9296875 C25.63183678 16.28710075 27.50261214 22.74821356 27 32 C26.01 32.495 26.01 32.495 25 33 C24.21625 32.525625 23.4325 32.05125 22.625 31.5625 C17.43602632 29.32587341 12.57280787 29.75652781 7 30 C7.33 31.32 7.66 32.64 8 34 C10.31 33.01 12.62 32.02 15 31 C18 34.75 18 34.75 18 37 C19.65 37.33 21.3 37.66 23 38 C23.33 39.32 23.66 40.64 24 42 C24.639375 42.103125 25.27875 42.20625 25.9375 42.3125 C26.618125 42.539375 27.29875 42.76625 28 43 C28.33 43.99 28.66 44.98 29 46 C31.00016466 47.20882096 31.00016466 47.20882096 33 48 C33 48.99 33 49.98 33 51 C33.99 51 34.98 51 36 51 C36.76677984 57.00644207 35.1736939 60.17329995 31.65625 65.04296875 C29.6675125 67.39286849 27.86022468 68.84044946 25 70 C24.01 70 23.02 70 22 70 C22 70.66 22 71.32 22 72 C23.32 72.66 24.64 73.32 26 74 C22.90860147 81.38665898 19.41976029 86.18916226 13 91 C13.4846875 91.4640625 13.969375 91.928125 14.46875 92.40625 C19.11792916 97.19848083 22.40946805 102.1314361 25.375 108.0625 C25.70822266 108.7225 26.04144531 109.3825 26.38476562 110.0625 C30.7456526 119.10663931 31.36401521 127.30876329 31.375 137.25 C31.39949219 138.40113281 31.42398438 139.55226563 31.44921875 140.73828125 C31.48686717 151.86966452 29.1099202 161.31009753 22 170 C22.7425 170.10441406 23.485 170.20882812 24.25 170.31640625 C29.72492645 171.67736098 33.47215231 175.80371895 36.625 180.3359375 C40.66655809 187.61533474 40.96094223 194.08828055 39.25 202.125 C37.35379131 208.67553911 34.94032127 214.27003083 29 218 C23.98119203 220.48474154 19.82999131 221.54799284 14.1875 221.5 C13.45974365 221.49935547 12.7319873 221.49871094 11.98217773 221.49804688 C5.40117886 221.32380884 -0.47540274 219.70274951 -6.73925781 217.80126953 C-16.06988217 214.99036934 -16.06988217 214.99036934 -25.31640625 217.1328125 C-26.83239487 218.0306061 -28.3405883 218.94172117 -29.83984375 219.8671875 C-33.55043924 221.8130694 -35.8605612 221.67859652 -40 221 C-43.79464614 218.81936625 -46.58688237 215.61967645 -49 212 C-49.37125 212.7425 -49.7425 213.485 -50.125 214.25 C-52.42919785 217.62949017 -54.35205408 219.14161246 -58 221 C-63.61984613 221.93664102 -66.06643973 221.16740775 -70.75 218 C-76.56017138 214.29137997 -81.24193576 213.7567712 -88 215 C-90.57868455 215.95061676 -93.09542587 216.93604166 -95.625 218 C-104.80460312 221.83244532 -115.03219671 223.2051285 -124.703125 220.14453125 C-130.37964229 216.97044811 -134.95792529 211.12622414 -137 205 C-137.12320587 202.23789626 -137.18513929 199.51203541 -137.1875 196.75 C-137.19974609 196.01136719 -137.21199219 195.27273438 -137.22460938 194.51171875 C-137.2443808 187.03811931 -135.75562798 180.94453497 -131 175 C-127.32549283 172.10730287 -124.55746593 170.77885627 -120 170 C-120.40992188 169.39671875 -120.81984375 168.7934375 -121.2421875 168.171875 C-121.78101563 167.37265625 -122.31984375 166.5734375 -122.875 165.75 C-123.40867188 164.96109375 -123.94234375 164.1721875 -124.4921875 163.359375 C-131.75943452 151.98782785 -132.02803991 133.57015592 -129.27734375 120.58984375 C-128.35296845 117.92899014 -127.29260825 115.50045531 -126 113 C-125.63777344 112.23945313 -125.27554688 111.47890625 -124.90234375 110.6953125 C-121.74341534 104.50595447 -117.42829315 99.31747329 -113 94 C-111.66355109 92.33583058 -110.32935787 90.66983928 -109 89 C-109.50789063 88.67128906 -110.01578125 88.34257812 -110.5390625 88.00390625 C-116.07108326 84.18121775 -119.84889514 79.96800163 -123 74 C-123 73.34 -123 72.68 -123 72 C-121.25 70.4921875 -121.25 70.4921875 -119 68.875 C-118.2575 68.33617187 -117.515 67.79734375 -116.75 67.2421875 C-116.1725 66.83226562 -115.595 66.42234375 -115 66 C-115.86625 64.71029297 -115.86625 64.71029297 -116.75 63.39453125 C-121.93489938 55.29449695 -124.68486432 48.88822009 -123 39 C-122.13331445 36.24699885 -121.07540425 34.07540425 -119 32 C-116.77685889 31.7349898 -114.54541537 31.53832714 -112.3125 31.375 C-110.48138672 31.23191406 -110.48138672 31.23191406 -108.61328125 31.0859375 C-105.22646162 31.00538611 -102.31418864 31.36577397 -99 32 C-97.63875 31.9690625 -97.63875 31.9690625 -96.25 31.9375 C-94 32 -94 32 -92 34 C-91.13375 33.505 -91.13375 33.505 -90.25 33 C-88 32 -88 32 -84 32 C-84.33 37.61 -84.66 43.22 -85 49 C-84.01 49 -83.02 49 -82 49 C-81.92523438 48.16597656 -81.85046875 47.33195312 -81.7734375 46.47265625 C-80.62054461 36.60524942 -78.0328984 29.9826101 -70.1875 23.6875 C-66.04206989 20.82367233 -61.64710644 18.895751 -57 17 C-56.36835938 16.68804687 -55.73671875 16.37609375 -55.0859375 16.0546875 C-49.90408131 13.52082831 -46.53538056 14.18292715 -41.17578125 15.91015625 C-30.81351679 20.08050825 -21.48436241 25.21962635 -16.015625 35.32421875 C-14.28492068 39.88395898 -14.12454228 44.14285099 -14 49 C-10.7 49 -7.4 49 -4 49 C-3.67 47.68 -3.34 46.36 -3 45 C-1.4375 42.75 -1.4375 42.75 0 41 C-1.10408203 39.71416016 -1.10408203 39.71416016 -2.23046875 38.40234375 C-13.2484189 25.52045467 -13.2484189 25.52045467 -16 21 C-14.77065985 17.31197956 -13.06140622 16.27643027 -10 14 C-6.56404834 15.52708963 -3.88087546 17.59927045 -1 20 C1.657623 13.27777713 0.78767638 7.07844318 0 0 Z " fill="#F3F5FA" transform="translate(306,129)"/>
<path d="M0 0 C5.07680297 4.49481195 10.08929392 9.05264771 15.03125 13.6953125 C15.68738281 14.30890625 16.34351563 14.9225 17.01953125 15.5546875 C22.17121568 20.52872764 26.59764656 26.08534786 31.03125 31.6953125 C31.52431641 32.31196777 32.01738281 32.92862305 32.52539062 33.56396484 C40.93630413 44.11390537 48.34562833 54.9766383 55.03125 66.6953125 C55.4550293 67.42911133 55.87880859 68.16291016 56.31542969 68.91894531 C88.36094021 124.9554837 94.897868 193.78708195 78.07861328 255.67578125 C77.41460915 258.02150635 76.72925573 260.35948969 76.03125 262.6953125 C75.69432129 263.83323242 75.69432129 263.83323242 75.35058594 264.99414062 C64.27524101 301.43957331 43.4961051 334.5129621 17.03125 361.6953125 C16.46905762 362.27796875 15.90686523 362.860625 15.32763672 363.4609375 C7.96224523 371.0723164 0.48929012 378.28738109 -7.96875 384.6953125 C-8.60232422 385.17822754 -9.23589844 385.66114258 -9.88867188 386.15869141 C-21.06457333 394.62394202 -32.59028982 402.10985711 -44.96875 408.6953125 C-46.25313965 409.37956299 -46.25313965 409.37956299 -47.56347656 410.07763672 C-70.91833227 422.3117443 -95.98640322 430.35229632 -121.96875 434.6953125 C-122.70109863 434.81841797 -123.43344727 434.94152344 -124.18798828 435.06835938 C-186.67037395 445.20469072 -253.62238016 429.27496621 -304.99511719 392.46679688 C-316.65640231 383.94577607 -327.49548728 374.62446343 -337.96875 364.6953125 C-339.09990234 363.62796875 -339.09990234 363.62796875 -340.25390625 362.5390625 C-345.13025995 357.8081269 -349.44894317 352.69777312 -353.65136719 347.36328125 C-354.57624076 346.1922775 -355.50712139 345.0260052 -356.44238281 343.86328125 C-398.16031403 291.91756028 -416.34066549 224.94381231 -409.14428711 158.87744141 C-408.55918501 154.45395932 -407.80594009 150.07737637 -406.96875 145.6953125 C-406.80246094 144.7765332 -406.63617188 143.85775391 -406.46484375 142.91113281 C-402.48269532 121.28216737 -395.6370274 100.44822558 -385.96875 80.6953125 C-385.59524414 79.92912598 -385.22173828 79.16293945 -384.83691406 78.37353516 C-374.27559716 56.96510385 -360.73134437 37.68033539 -344.37890625 20.31640625 C-341.95729452 17.74689043 -341.95729452 17.74689043 -339.875 15.0546875 C-338.16035596 12.93246413 -336.48736761 11.25631088 -334.40625 9.5078125 C-331.17452402 6.75639809 -328.06377084 3.9120125 -324.96875 1.0078125 C-288.46369032 -32.09677586 -240.63130285 -52.26756223 -191.96875 -58.3046875 C-191.28022949 -58.3989502 -190.59170898 -58.49321289 -189.88232422 -58.59033203 C-121.88869132 -66.81192857 -51.44977504 -44.92623897 0 0 Z M-204.96875 -46.3046875 C-206.45785889 -46.00667236 -206.45785889 -46.00667236 -207.97705078 -45.70263672 C-262.74469944 -34.37578761 -314.60327102 -3.86331703 -348.96875 40.6953125 C-349.39124023 41.2413916 -349.81373047 41.7874707 -350.24902344 42.35009766 C-373.72645509 72.90162759 -389.44953825 107.91710231 -396.96875 145.6953125 C-397.13246094 146.47793457 -397.29617188 147.26055664 -397.46484375 148.06689453 C-403.15822275 176.38674979 -401.91669999 208.55170902 -395.96875 236.6953125 C-395.78151367 237.59781738 -395.59427734 238.50032227 -395.40136719 239.43017578 C-387.25244549 277.53588476 -369.39571278 313.22635564 -343.96875 342.6953125 C-343.32292969 343.45199219 -342.67710937 344.20867187 -342.01171875 344.98828125 C-339.71627191 347.60851407 -337.36258606 350.16539068 -334.96875 352.6953125 C-334.3809375 353.31712402 -333.793125 353.93893555 -333.1875 354.57958984 C-323.18256753 365.07335458 -312.79964887 374.31880905 -300.96875 382.6953125 C-299.93210205 383.44240479 -299.93210205 383.44240479 -298.87451172 384.20458984 C-249.48909981 419.58501183 -186.01473828 434.92632354 -125.94824219 425.20654297 C-98.46631201 420.42986079 -72.57847613 411.86063262 -47.96875 398.6953125 C-46.81246094 398.08171875 -45.65617187 397.468125 -44.46484375 396.8359375 C-29.8044774 388.76356285 -16.43517911 378.82758087 -3.96875 367.6953125 C-3.1651001 366.9842334 -3.1651001 366.9842334 -2.34521484 366.25878906 C41.62083136 327.20974061 69.65666954 272.17838203 76.03125 213.6953125 C76.14210938 212.72980469 76.25296875 211.76429688 76.3671875 210.76953125 C82.26919576 149.27698574 62.55703555 88.01016171 24.57421875 39.76171875 C19.951157 34.18705904 15.05490272 28.90895384 10.03125 23.6953125 C9.44682129 23.08365234 8.86239258 22.47199219 8.26025391 21.84179688 C0.25518635 13.49794685 -7.95762439 5.8250412 -17.265625 -1.04589844 C-18.92909931 -2.27538146 -20.57402552 -3.52684962 -22.21875 -4.78125 C-61.90936998 -34.56840774 -111.68320365 -49.8298946 -161.03125 -49.6171875 C-162.38428223 -49.61395477 -162.38428223 -49.61395477 -163.76464844 -49.61065674 C-177.68591924 -49.557374 -191.28418283 -49.0754576 -204.96875 -46.3046875 Z " fill="#005AAB" transform="translate(418.96875,69.3046875)"/>
<path d="M0 0 C0.96873047 0.6496875 0.96873047 0.6496875 1.95703125 1.3125 C12.50367307 7.54526234 23.18768728 7.02984744 35.0546875 5.4921875 C41.42280527 4.74532233 47.8250316 4.73972586 54.22875977 4.70483398 C55.69956057 4.69329128 57.17031875 4.67280303 58.64086914 4.64331055 C66.61932965 4.48404385 73.64717216 4.40555742 80.90649414 8.23364258 C83.64957581 9.23778641 85.22752055 8.8155986 88 8 C89.0725 7.48953125 90.145 6.9790625 91.25 6.453125 C97.41949654 4.07445419 104.17875764 4.62996708 110.69042969 4.71875 C112.99430663 4.74992296 115.29749527 4.75973476 117.6015625 4.765625 C119.08854986 4.77479751 120.57553038 4.78517407 122.0625 4.796875 C123.07848267 4.80324982 123.07848267 4.80324982 124.11499023 4.80975342 C128.82264107 4.87888128 133.34240405 5.37798363 138 6 C147.36844745 6.75229452 156.02376342 7.23514786 164.25 2.09375 C166 1 166 1 168 1 C168.35238967 8.28271991 168.28340284 15.97866066 163.453125 21.89453125 C157.03816915 27.72759951 150.55483339 28.27992919 142.2109375 28.125 C141.27126129 28.11742676 140.33158508 28.10985352 139.36343384 28.10205078 C135.366903 28.06958728 131.37079158 28.01361212 127.37451172 27.95898438 C104.99283515 26.90390553 104.99283515 26.90390553 85.5 36.25 C85.005 36.8275 84.51 37.405 84 38 C83.44739502 37.22213135 82.89479004 36.4442627 82.32543945 35.64282227 C77.73777891 30.42902432 71.07714008 29.31222835 64.3706665 28.79864502 C55.91134234 28.43673432 47.44017145 28.52836304 38.9753418 28.5847168 C35.72927856 28.59930746 32.48430644 28.5839486 29.23828125 28.56640625 C28.25886063 28.58288712 27.27944 28.59936798 26.27033997 28.61634827 C17.83721285 28.55584043 11.37018864 26.01165794 5.0625 20.375 C1.17613969 14.01550131 -0.20700473 7.40859032 0 0 Z " fill="#F4F6FB" transform="translate(173,349)"/>
<path d="M0 0 C2.11357142 1.83140697 3.39433875 3.66449273 5 6 C4.4946875 6.91523438 3.989375 7.83046875 3.46875 8.7734375 C2.81228073 9.97383845 2.1560427 11.17436587 1.5 12.375 C1.16613281 12.97828125 0.83226562 13.5815625 0.48828125 14.203125 C-1.38773938 17.41414777 -1.38773938 17.41414777 -2 21 C0.64 22.32 3.28 23.64 6 25 C7.98 23.35 9.96 21.7 12 20 C13.00551588 23.40391852 13.19752699 26.65071643 13.375 30.1875 C13.87126121 37.19029711 15.08123093 43.1218464 19 49 C18.12859375 49.52207031 17.2571875 50.04414063 16.359375 50.58203125 C8.67431708 55.29376826 2.02210819 60.36778089 -4.4765625 66.6171875 C-7 69 -7 69 -11 72 C-11 65.07 -11 58.14 -11 51 C-14.465 51.495 -14.465 51.495 -18 52 C-18.33 45.07 -18.66 38.14 -19 31 C-20.85839636 35.52537441 -20.85839636 35.52537441 -21.4140625 39.98828125 C-21.45273438 40.69404297 -21.49140625 41.39980469 -21.53125 42.12695312 C-21.57765625 43.20879883 -21.57765625 43.20879883 -21.625 44.3125 C-21.66367188 45.05306641 -21.70234375 45.79363281 -21.7421875 46.55664062 C-21.83581705 48.37071309 -21.91896851 50.18532116 -22 52 C-26.62 52 -31.24 52 -36 52 C-36 54.64 -36 57.28 -36 60 C-37.2065625 60.3403125 -37.2065625 60.3403125 -38.4375 60.6875 C-41.22939843 61.73999605 -41.22939843 61.73999605 -41.8125 64.4375 C-42.03694469 67.50491076 -41.98289174 70.48758543 -41.875 73.5625 C-42 77 -42 77 -44 79 C-50.56758499 65.51413374 -52.27196798 51.48212089 -48.03125 36.8359375 C-43.14975721 23.41183231 -33.34820049 11.55736693 -20.6796875 4.75390625 C-14.16147635 1.73785262 -7.26116969 -1.07572884 0 0 Z " fill="#045BAC" transform="translate(231,211)"/>
<path d="M0 0 C3.00099588 -0.10890711 5.99796378 -0.18773555 9 -0.25 C9.83917969 -0.28351563 10.67835938 -0.31703125 11.54296875 -0.3515625 C17.79172971 -0.44844251 21.61032375 0.83106998 27 4 C27 4.66 27 5.32 27 6 C27.90878906 5.18144531 28.81757813 4.36289063 29.75390625 3.51953125 C34.81667449 -0.09673178 39.93975761 0.44550543 45.9375 0.6875 C47.53561523 0.72133789 47.53561523 0.72133789 49.16601562 0.75585938 C51.77882022 0.81444244 54.38865733 0.89641323 57 1 C57.18940709 10.60247188 56.76187823 18.95279807 49.8828125 26.28125 C46.83704 29.06162324 43.58237534 31.55498477 40.26953125 34.0078125 C36.39083358 37.4125213 34.60748062 40.90873382 34 46 C33.821196 49.0015622 33.76952225 51.99357423 33.75 55 C33.729375 55.7940625 33.70875 56.588125 33.6875 57.40625 C33.65624653 62.09427071 33.90326075 65.23005657 37 69 C40.90978881 72.07004202 45.10748378 73.16830398 50 73.5 C56.51593438 73.95041021 61.54048328 76.09074233 66 80.9375 C68.13259608 84.20303775 68.20210723 85.26733208 68 89 C66.43908834 89.10911227 64.87591508 89.18609398 63.3125 89.25 C62.44238281 89.29640625 61.57226562 89.3428125 60.67578125 89.390625 C58 89 58 89 55.75 87.171875 C52.02567021 84.2305009 48.20714976 83.28027433 43.6875 82 C24.01912272 76.34941647 24.01912272 76.34941647 19.390625 68.1484375 C16.81207153 61.87110591 17.56441537 54.73768712 17.56054688 48.07226562 C17.45087263 41.75276024 17.33178675 37.75952152 13 33 C11.34534825 31.48301027 11.34534825 31.48301027 9.625 30.3125 C4.57980702 26.07366615 0.56852374 20.63253739 -0.25341797 13.93505859 C-0.50229584 9.27247103 -0.31539195 4.65495152 0 0 Z " fill="#055CAC" transform="translate(230,183)"/>
<path d="M0 0 C5.55349977 1.88422314 8.94390956 5.06084306 12.375 9.75 C14.66684015 16.75284491 15.7630867 24.2524596 12.8125 31.1875 C9.69401466 36.99873889 6.78615669 40.72234051 0.5 43.1875 C-7.95437846 45.34253765 -15.95324452 42.7479374 -24 40.0625 C-32.91668734 37.22777615 -40.60943357 37.50355542 -49.5 40.1875 C-49.995 38.7025 -49.995 38.7025 -50.5 37.1875 C-50.005 36.6925 -50.005 36.6925 -49.5 36.1875 C-49.41262355 34.33380389 -49.39301847 32.47682459 -49.40234375 30.62109375 C-49.40556641 29.49638672 -49.40878906 28.37167969 -49.41210938 27.21289062 C-49.42048828 26.02888672 -49.42886719 24.84488281 -49.4375 23.625 C-49.44201172 22.43712891 -49.44652344 21.24925781 -49.45117188 20.02539062 C-49.46300325 17.07937774 -49.47948713 14.13346319 -49.5 11.1875 C-46.5 11.1875 -46.5 11.1875 -44.5 12.1875 C-37.24554676 12.82239476 -31.29518942 12.67021026 -24.81640625 9.2578125 C-22.04698917 7.97818302 -19.35467619 7.39245806 -16.375 6.75 C-12.46681482 5.86335216 -9.79627569 4.97342264 -6.6875 2.4375 C-3.5 0.1875 -3.5 0.1875 0 0 Z " fill="#035BAB" transform="translate(326.5,301.8125)"/>
<path d="M0 0 C11.01521378 3.18146232 18.86720114 11.8335509 24.46875 21.546875 C31.76809368 35.55142973 32.5933906 53.24940316 28.5 68.5 C24.78358064 78.11365426 18.23904236 83.82102112 8.96484375 88.03125 C4.63393324 89.44635646 1.29862941 89.49554701 -3 88 C-6.9028909 85.86445592 -10.0828172 83.36598016 -13 80 C-13 79.34 -13 78.68 -13 78 C-9.28648226 77.12535655 -5.9567389 76.92631311 -2.1484375 77.04296875 C-0.50101562 77.07487305 -0.50101562 77.07487305 1.1796875 77.10742188 C3.48467185 77.16099577 5.78941433 77.22618268 8.09375 77.30273438 C9.73730469 77.32883789 9.73730469 77.32883789 11.4140625 77.35546875 C12.4138916 77.38278076 13.4137207 77.41009277 14.44384766 77.43823242 C17.12600643 77.23439783 17.12600643 77.23439783 18.83349609 75.13793945 C20.25717826 72.52865007 20.30104672 70.93520555 20 68 C19.67 67.01 19.34 66.02 19 65 C19.66 62.36 20.32 59.72 21 57 C15.06 57 9.12 57 3 57 C2.95101563 55.02515625 2.90203125 53.0503125 2.8515625 51.015625 C2.77653189 48.42706908 2.70098419 45.83852811 2.625 43.25 C2.5940625 41.94804687 2.563125 40.64609375 2.53125 39.3046875 C2.49257813 38.05429688 2.45390625 36.80390625 2.4140625 35.515625 C2.36693115 33.78747559 2.36693115 33.78747559 2.31884766 32.02441406 C2.14853 28.71210344 2.14853 28.71210344 0 25 C-0.33 33.91 -0.66 42.82 -1 52 C-1.66 51.01 -2.32 50.02 -3 49 C-6.88764895 43.58085298 -11.04498727 40.93209777 -17 38 C-16.6596875 37.5359375 -16.319375 37.071875 -15.96875 36.59375 C-12.42864341 31.54721507 -9.50565007 26.31368767 -6.75 20.8125 C-6.40904297 20.13574219 -6.06808594 19.45898438 -5.71679688 18.76171875 C-2.68175165 12.60715388 -0.82276233 6.85635274 0 0 Z " fill="#065CAC" transform="translate(303,216)"/>
<path d="M0 0 C1.99757489 2.33786972 3.18267876 4.67753232 4.51953125 7.44140625 C6.85899807 11.48454812 9.91515427 12.88714876 14 15 C14 12.03 14 9.06 14 6 C15.4540625 6.7425 15.4540625 6.7425 16.9375 7.5 C23.88219563 10.16526157 31.69457228 9.20127199 39 9 C40.32 9 41.64 9 43 9 C42.979375 10.093125 42.95875 11.18625 42.9375 12.3125 C42.81455548 15.94384191 42.81455548 15.94384191 44 19 C43.505 19.495 43.505 19.495 43 20 C42.9549714 21.66605828 42.96125079 23.33378384 43 25 C43 29 43 33 43 37 C42.01 37.495 42.01 37.495 41 38 C39.40625 37.22265625 39.40625 37.22265625 37.5 36.0625 C31.8757252 33.13922265 26.42157226 33.15592945 20.30712891 34.66430664 C16.60048483 35.85031251 12.95291589 37.17403857 9.29882812 38.51171875 C1.75883668 41.12274052 -5.92009128 42.85450396 -13.4375 39.4375 C-18.88296418 34.25766822 -21.14345907 28.4091476 -21.375 20.9375 C-21.31232856 12.91555623 -18.86208211 7.5355132 -13.875 1.375 C-9.26109506 -0.83165019 -4.95588646 -1.47356979 0 0 Z " fill="#045BAB" transform="translate(195,304)"/>
<path d="M0 0 C0.99257813 0.28617187 1.98515625 0.57234375 3.0078125 0.8671875 C4.03648437 1.19976562 5.06515625 1.53234375 6.125 1.875 C7.15882813 2.20242188 8.19265625 2.52984375 9.2578125 2.8671875 C11.9330828 3.97235614 13.34098862 4.65255533 15 7 C15.45086345 9.75885494 15.18192449 12.18017041 15 15 C14.505 15.495 14.505 15.495 14 16 C13.08211815 21.20520342 13.6891551 25.20081262 16.5 29.6875 C19.68978153 34.03720209 23.49627783 37.08515443 28 40 C27.505 40.99 27.505 40.99 27 42 C22.63476095 43.45507968 18.55154094 43.77369226 14 43 C12.10546875 41.66015625 12.10546875 41.66015625 10.4375 40 C7.82771151 37.4209149 6.19857443 36.47453403 2.5 36.25 C-1.93971141 36.56115926 -4.48539557 38.27237045 -7.625 41.33203125 C-9.33861227 43.41075977 -10.3113665 45.39849567 -11 48 C-12.33037532 46.00443701 -13.62268277 43.98295147 -14.875 41.9375 C-17.30628876 38.48811489 -17.30628876 38.48811489 -21 37 C-26.13130156 36.30916438 -26.13130156 36.30916438 -30.7578125 38.12109375 C-31.88043707 39.0426902 -33.00283182 39.96456665 -34.125 40.88671875 C-37.51782977 42.90121143 -41.18855655 42.3889228 -45 42 C-44.27334374 30.57333033 -40.92389428 23.391105 -32.4375 15.66796875 C-26.52048033 10.97544343 -20.09856182 7.13544679 -13.5625 3.375 C-12.79309082 2.92439209 -12.02368164 2.47378418 -11.23095703 2.00952148 C-4.5205682 -1.71495765 -4.5205682 -1.71495765 0 0 Z " fill="#045BAC" transform="translate(269,267)"/>
<path d="M0 0 C0.86595291 0.32662628 1.73190582 0.65325256 2.62409973 0.98977661 C5.99333535 1.99800563 8.51731416 2.22019928 12.0144043 2.16357422 C13.76233528 2.14398148 13.76233528 2.14398148 15.545578 2.12399292 C17.41600517 2.08968674 17.41600517 2.08968674 19.32421875 2.0546875 C21.30684113 2.03586277 23.28946407 2.01706281 25.27209949 1.99966621 C30.13665643 1.95402824 35.00086823 1.88701623 39.86499023 1.80810547 C42.59878098 1.76458496 45.33230449 1.73221393 48.06636047 1.71121216 C50.63099865 1.69071989 53.19557653 1.65392118 55.75968933 1.59811401 C63.72500793 1.5525395 72.591118 1.99596005 78.80082703 7.63546753 C79.19655411 8.08576324 79.59228119 8.53605896 80 9 C80.804375 8.21625 81.60875 7.4325 82.4375 6.625 C89.64534928 0.70440839 99.54047708 1.75342866 108.35546875 1.875 C110.2460778 1.88635986 110.2460778 1.88635986 112.17488098 1.89794922 C116.17923413 1.92226361 120.18329185 1.95911988 124.1875 2 C129.47263652 2.0538024 134.75764128 2.09317024 140.04296875 2.125 C141.25244675 2.14159668 142.46192474 2.15819336 143.70805359 2.17529297 C144.83975479 2.18189941 145.97145599 2.18850586 147.13745117 2.1953125 C148.62229256 2.21102295 148.62229256 2.21102295 150.13713074 2.22705078 C153.34381744 1.97273225 155.99742708 1.12618883 159 0 C158.73290484 3.82836401 158.23114937 5.70941223 155.8125 8.75 C150.04132633 13.36693893 144.13603313 13.30270496 137.0625 13.34375 C135.62680664 13.3656842 135.62680664 13.3656842 134.16210938 13.38806152 C131.10811542 13.43438308 128.05418183 13.46863299 125 13.5 C102.32000455 12.40264426 102.32000455 12.40264426 82 20 C77.62881563 20 76.03813516 19.13927835 72.390625 17.0703125 C65.14983847 13.82852245 58.07393056 13.70722264 50.2734375 13.69140625 C48.00260142 13.66626247 45.73176815 13.64086422 43.4609375 13.61523438 C39.90820956 13.58644045 36.35553 13.56239754 32.80273438 13.54370117 C29.35522703 13.52204717 25.90825827 13.48262876 22.4609375 13.44140625 C21.4014389 13.44129044 20.34194031 13.44117462 19.25033569 13.4410553 C12.4150738 13.34940318 7.66014662 12.73204247 2.6875 7.625 C0.98514648 4.97689453 0.35449798 3.10185729 0 0 Z " fill="#095EAD" transform="translate(178,358)"/>
<path d="M0 0 C0.04898438 0.99 0.09796875 1.98 0.1484375 3 C0.22355615 4.33335605 0.2990999 5.6666882 0.375 7 C0.47941406 8.9490625 0.47941406 8.9490625 0.5859375 10.9375 C0.9106384 15.11164241 1.89286676 18.96751472 3 23 C1.75863281 23.39832031 0.51726562 23.79664063 -0.76171875 24.20703125 C-2.40375103 24.74186462 -4.04567232 25.27703885 -5.6875 25.8125 C-6.50412109 26.07353516 -7.32074219 26.33457031 -8.16210938 26.60351562 C-12.47870164 28.01907827 -16.129176 29.580735 -20 32 C-24.60948861 32.20486616 -26.89969579 30.46448141 -30.25 27.5625 C-32.20822511 25.74469026 -34.11069667 23.88930333 -36 22 C-36 21.01 -36 20.02 -36 19 C-34.41796875 17.7109375 -34.41796875 17.7109375 -32.1875 16.375 C-27.32479971 13.31472017 -23.03246683 9.78784932 -18.67578125 6.05078125 C-12.70218061 1.47247419 -7.39002074 -0.06148104 0 0 Z " fill="#055CAC" transform="translate(224,183)"/>
<path d="M0 0 C9.2 0 9.2 0 14 4 C15.23639123 5.26380567 16.46490309 6.53534501 17.6875 7.8125 C22.66349993 12.95212081 28.61091793 16.80545897 35 20 C35 22.125 35 22.125 34 25 C29.84162155 29.14845392 25.95747654 31.63095278 20 32 C17.140625 31.14453125 17.140625 31.14453125 14.25 29.8125 C8.86527891 27.37760563 3.51810671 25.20724268 -2 23 C-1.34 15.41 -0.68 7.82 0 0 Z " fill="#075DAC" transform="translate(292,183)"/>
<path d="M0 0 C0.99 0 1.98 0 3 0 C6.37508779 27.66366596 6.37508779 27.66366596 2 34 C-2.91914005 38.55020455 -6.85171072 39.35729754 -13.36328125 39.28125 C-18.80134018 38.70119038 -22.6518041 36.41915358 -26.375 32.5 C-28.91297294 28.59542624 -30.23382158 25.68951858 -30.6328125 21.015625 C-30.71660156 20.08105469 -30.80039062 19.14648438 -30.88671875 18.18359375 C-30.96535156 17.21550781 -31.04398437 16.24742187 -31.125 15.25 C-31.21136719 14.26644531 -31.29773438 13.28289062 -31.38671875 12.26953125 C-31.59840638 9.84688397 -31.80256279 7.42384333 -32 5 C-30.35064453 5.01740234 -30.35064453 5.01740234 -28.66796875 5.03515625 C-14.64607692 5.50366021 -14.64607692 5.50366021 -1 3 C-0.67 2.01 -0.34 1.02 0 0 Z M-14.0625 12.9375 C-15.59100586 13.06801758 -15.59100586 13.06801758 -17.15039062 13.20117188 C-18.12298828 13.28818359 -19.09558594 13.37519531 -20.09765625 13.46484375 C-20.98976807 13.543396 -21.88187988 13.62194824 -22.80102539 13.70288086 C-25.03853941 13.88451045 -25.03853941 13.88451045 -27 15 C-26.80586319 19.4554398 -26.56298109 23.01999588 -24.3125 26.9375 C-20.15304217 30.64728672 -16.43007848 31.20655794 -11 30.9375 C-5.88456225 30.29710583 -3.48572642 28.75385923 0 25 C1.49084832 20.52745503 1.49084832 16.47254497 0 12 C-4.70913059 12 -9.37452421 12.51781455 -14.0625 12.9375 Z " fill="#005AAB" transform="translate(473,226)"/>
<path d="M0 0 C0 0.99 0 1.98 0 3 C-0.60328125 3.58265625 -1.2065625 4.1653125 -1.828125 4.765625 C-4.52561033 7.54073581 -5.44434739 10.12318719 -6.75 13.75 C-7.17796875 14.92046875 -7.6059375 16.0909375 -8.046875 17.296875 C-8.36140625 18.18890625 -8.6759375 19.0809375 -9 20 C-8.39414063 20.17015625 -7.78828125 20.3403125 -7.1640625 20.515625 C-1.68336535 22.10081125 3.54036401 23.95484884 8.7734375 26.23046875 C11.23746368 27.21776995 11.23746368 27.21776995 15 27 C15.495 28.485 15.495 28.485 16 30 C12.84513607 32.71889027 10.11226214 34.22073571 6 35 C-0.31858881 33.73022256 -6.21506977 30.75382844 -12 28 C-11.34 29.11375 -10.68 30.2275 -10 31.375 C-8 34.75 -8 34.75 -8 37 C-6.35 37 -4.7 37 -3 37 C-3 37.99 -3 38.98 -3 40 C-4.93108963 41.03290841 -6.870118 42.05098672 -8.8125 43.0625 C-9.89144531 43.63097656 -10.97039062 44.19945312 -12.08203125 44.78515625 C-15 46 -15 46 -18 45 C-18 44.34 -18 43.68 -18 43 C-17.01 42.505 -17.01 42.505 -16 42 C-17.54452714 36.67053273 -19.9713072 32.08469657 -22.625 27.25 C-23.45428347 25.73643047 -24.27999263 24.22089532 -25.1015625 22.703125 C-25.46588379 22.03958008 -25.83020508 21.37603516 -26.20556641 20.69238281 C-27 19 -27 19 -27 17 C-28.65 17.33 -30.3 17.66 -32 18 C-31.91015625 16.203125 -31.91015625 16.203125 -31 14 C-28.05859375 12.296875 -28.05859375 12.296875 -24.4375 10.75 C-23.23996094 10.22921875 -22.04242188 9.7084375 -20.80859375 9.171875 C-19.41833984 8.59179688 -19.41833984 8.59179688 -18 8 C-18 12 -18 12 -19 14 C-18.23399418 16.01925867 -18.23399418 16.01925867 -17.0625 18.125 C-16.49208984 19.21167969 -16.49208984 19.21167969 -15.91015625 20.3203125 C-15.60980469 20.87460938 -15.30945313 21.42890625 -15 22 C-12.16305938 16.06821508 -10 9.65359968 -10 3 C-6.27034861 0.96564469 -4.33094958 0 0 0 Z " fill="#005AAB" transform="translate(174,54)"/>
<path d="M0 0 C4.49267981 1.59004582 6.84480954 5.06918804 9.6875 8.6875 C10.18572266 9.28755859 10.68394531 9.88761719 11.19726562 10.50585938 C14.42673868 14.58542438 15.81004505 17.64196032 16 23 C15.125 25.4375 15.125 25.4375 13 27 C9.97119011 27.32700425 7.03352202 27.22894506 4 27 C4.3403125 28.0828125 4.3403125 28.0828125 4.6875 29.1875 C5.09077242 32.81695175 4.17142672 34.13061469 2 37 C-1.52874185 39.35249457 -3.44738828 39.60487285 -7.59375 39.50390625 C-14.45085806 38.06792096 -19.02546491 31.03733607 -22.96875 25.69921875 C-24 24 -24 24 -24 22 C-22.98292969 21.61714844 -21.96585937 21.23429687 -20.91796875 20.83984375 C-16.7675194 19.05869194 -13.67049177 16.53808701 -10.3125 13.5625 C-9.75755859 13.08490234 -9.20261719 12.60730469 -8.63085938 12.11523438 C-5.6354992 9.51878067 -2.76416126 6.8448667 0 4 C-0.33 3.01 -0.66 2.02 -1 1 C-0.67 0.67 -0.34 0.34 0 0 Z M5 12 C2.03 14.475 2.03 14.475 -1 17 C-0.20882096 18.99983534 -0.20882096 18.99983534 1 21 C3.83806568 22.25072191 3.83806568 22.25072191 6.125 21.4375 C8.33317834 20.0570088 8.33317834 20.0570088 8.75 16.875 C8.8325 15.92625 8.915 14.9775 9 14 C7.68 13.34 6.36 12.68 5 12 Z M-6 21 C-10.455 24.465 -10.455 24.465 -15 28 C-13.50476138 32.09194451 -13.50476138 32.09194451 -10.6875 32.9375 C-7.10714191 33.02076414 -5.6772505 32.37977822 -3 30 C-2.10407917 26.40080577 -2.10407917 26.40080577 -2 23 C-3.32 22.34 -4.64 21.68 -6 21 Z " fill="#005AAB" transform="translate(419,110)"/>
<path d="M0 0 C4.18626675 2.33416085 7.07411501 4.53484504 8.625 9.1875 C9.35084434 16.18671324 9.3068681 21.7665737 5.0625 27.56640625 C2.07105696 30.93990859 -1.08167661 33.98673768 -5.6953125 34.390625 C-12.70528583 34.50778333 -18.50628 34.22841529 -24.1640625 29.78125 C-28.05539458 25.87147559 -29.31800327 22.22025369 -29.54296875 16.74609375 C-29.17150072 11.08768546 -27.61619527 6.77347174 -24.125 2.3125 C-16.37285596 -3.67779312 -8.76337785 -4.11242312 0 0 Z M-17.375 6.1875 C-20.33279221 11.78617811 -21.98592024 17.07180677 -20.75 23.375 C-19.08369584 26.78334941 -17.63896057 28.25879603 -14.375 30.1875 C-10.72220054 30.79629991 -8.99826168 30.52880997 -5.75 28.75 C-1.42555879 24.08415553 0.81635514 18.81261288 1.125 12.4375 C0.93641644 8.28866166 -0.30580946 6.07614992 -3.375 3.1875 C-8.79453266 0.47773367 -13.45442436 1.94020973 -17.375 6.1875 Z " fill="#005AAB" transform="translate(332.375,49.8125)"/>
<path d="M0 0 C1.36205456 4.47841886 0.56449322 6.88430456 -1.30859375 11.10546875 C-1.80810547 12.25337891 -2.30761719 13.40128906 -2.82226562 14.58398438 C-3.35529297 15.77314453 -3.88832031 16.96230469 -4.4375 18.1875 C-5.48071086 20.55473731 -6.52122141 22.92316707 -7.55859375 25.29296875 C-8.02579834 26.3399292 -8.49300293 27.38688965 -8.97436523 28.46557617 C-10.12504294 30.85330976 -10.12504294 30.85330976 -10 33 C-8.94039062 32.4225 -7.88078125 31.845 -6.7890625 31.25 C-5.40115942 30.49978212 -4.01313213 29.74979399 -2.625 29 C-1.92632812 28.6184375 -1.22765625 28.236875 -0.5078125 27.84375 C4.7734375 25 4.7734375 25 7 25 C6.67 23.35 6.34 21.7 6 20 C7.859375 20.25390625 7.859375 20.25390625 10 21 C11.265625 22.77734375 11.265625 22.77734375 12.25 24.9375 C12.58515625 25.64777344 12.9203125 26.35804688 13.265625 27.08984375 C14 29 14 29 14 31 C12.68 31 11.36 31 10 31 C10 30.34 10 29.68 10 29 C6.20504463 30.78476065 2.4146315 32.57896611 -1.375 34.375 C-2.45523438 34.88289063 -3.53546875 35.39078125 -4.6484375 35.9140625 C-6.1953125 36.64882813 -6.1953125 36.64882813 -7.7734375 37.3984375 C-8.72653809 37.84880371 -9.67963867 38.29916992 -10.66162109 38.76318359 C-13.10495201 39.90865022 -13.10495201 39.90865022 -15 42 C-15.6425235 44.06874034 -15.6425235 44.06874034 -16 46 C-16.66 46 -17.32 46 -18 46 C-18.70492893 44.78074525 -19.38825901 43.5489894 -20.0625 42.3125 C-20.44535156 41.62800781 -20.82820313 40.94351563 -21.22265625 40.23828125 C-22.77693801 35.76288703 -20.53987801 31.61567296 -18.71484375 27.48046875 C-18.26689453 26.45888672 -17.81894531 25.43730469 -17.35742188 24.38476562 C-16.88884766 23.32966797 -16.42027344 22.27457031 -15.9375 21.1875 C-15.46505859 20.11306641 -14.99261719 19.03863281 -14.50585938 17.93164062 C-13.34167464 15.28576624 -12.17292168 12.64201005 -11 10 C-11.98742187 10.5053125 -12.97484375 11.010625 -13.9921875 11.53125 C-15.28635176 12.18771013 -16.58062845 12.84394867 -17.875 13.5 C-18.52597656 13.83386719 -19.17695312 14.16773438 -19.84765625 14.51171875 C-24.7734375 17 -24.7734375 17 -27 17 C-27 18.65 -27 20.3 -27 22 C-27.99 22 -28.98 22 -30 22 C-30.67408308 20.73308493 -31.33900497 19.46129251 -32 18.1875 C-32.37125 17.47980469 -32.7425 16.77210938 -33.125 16.04296875 C-34 14 -34 14 -34 11 C-33.01 11 -32.02 11 -31 11 C-30.34 11.66 -29.68 12.32 -29 13 C-27.27233073 12.13616536 -25.54468354 11.27228653 -23.81713867 10.40820312 C-22.35154563 9.67565144 -20.88555994 8.94388483 -19.41918945 8.21289062 C-16.20858394 6.61132154 -13.0041968 5.00216792 -9.81640625 3.35546875 C-8.94886719 2.90816406 -8.08132812 2.46085937 -7.1875 2 C-6.43855469 1.608125 -5.68960938 1.21625 -4.91796875 0.8125 C-3 0 -3 0 0 0 Z " fill="#005AAB" transform="translate(87,330)"/>
<path d="M0 0 C3.56237058 3.22729612 5.7586063 6.55044757 6.23828125 11.41796875 C6.41152764 17.88279473 5.84784895 22.68091468 2 28 C-2.4190993 32.53853441 -7.23750691 33.74886426 -13.4375 34.3125 C-19.26523928 33.8012948 -24.01740035 32.5414411 -27.9375 28 C-31.99530394 22.09773973 -31.47003084 15.93936441 -31 9 C-29.40574263 4.21722788 -27.24485007 1.70126823 -23 -1 C-15.18961807 -3.94731394 -7.33083752 -4.22932934 0 0 Z M-21 5 C-23.6003821 9.33397017 -23.5388896 14.09105258 -23 19 C-21.42126106 24.06858293 -19.77182591 27.45502618 -15 30 C-12.08007719 30.3373616 -9.74302951 30.06163276 -7 29 C-3.06680616 25.06680616 -2.23434412 20.90803644 -1.90234375 15.53125 C-2.10903696 10.17376196 -3.68871678 6.41760348 -7.3125 2.5 C-12.90757192 -0.62283084 -16.64818196 0.52729813 -21 5 Z " fill="#005AAB" transform="translate(261,40)"/>
<path d="M0 0 C0.99 0 1.98 0 3 0 C3 1.32 3 2.64 3 4 C11.58 7.3 20.16 10.6 29 14 C29.33 13.01 29.66 12.02 30 11 C30.99 11.33 31.98 11.66 33 12 C32.54917531 13.46067199 32.08906463 14.91848032 31.625 16.375 C31.36976563 17.18710937 31.11453125 17.99921875 30.8515625 18.8359375 C30 21 30 21 28 23 C26.13467615 23.71109829 24.24099452 24.3487795 22.3359375 24.9453125 C20.65371094 25.47705078 20.65371094 25.47705078 18.9375 26.01953125 C17.761875 26.38433594 16.58625 26.74914062 15.375 27.125 C14.19164062 27.49753906 13.00828125 27.87007813 11.7890625 28.25390625 C8.86106285 29.17480937 5.93137624 30.08991361 3 31 C5.75361142 33.75361142 8.99845364 34.47414027 12.625 35.625 C13.33140625 35.85445313 14.0378125 36.08390625 14.765625 36.3203125 C16.50866945 36.88562421 18.25411416 37.44352544 20 38 C20.33 37.01 20.66 36.02 21 35 C21.99 35.495 21.99 35.495 23 36 C22.69078116 37.45903258 22.37751201 38.91720722 22.0625 40.375 C21.88847656 41.18710937 21.71445312 41.99921875 21.53515625 42.8359375 C21 45 21 45 20 47 C19.01 47 18.02 47 17 47 C17 45.35 17 43.7 17 42 C15.1128125 41.4740625 15.1128125 41.4740625 13.1875 40.9375 C4.64830915 38.39180779 -3.66152453 35.12917535 -12 32 C-11.80859375 29.65234375 -11.80859375 29.65234375 -11 27 C-8.91015625 25.62890625 -8.91015625 25.62890625 -6.0625 24.5625 C-4.99644531 24.15773438 -3.93039062 23.75296875 -2.83203125 23.3359375 C-1.55640884 22.88571783 -0.27888505 22.44086655 1 22 C1.76908691 21.73477539 2.53817383 21.46955078 3.33056641 21.19628906 C8.5381995 19.41546177 13.76327889 17.69320649 19 16 C16.58459694 15.01761592 14.16778178 14.03899782 11.75 13.0625 C11.06808594 12.78470703 10.38617188 12.50691406 9.68359375 12.22070312 C6.48076362 10.93024244 3.36162466 9.78199956 0 9 C-0.33 9.99 -0.66 10.98 -1 12 C-1.99 11.67 -2.98 11.34 -4 11 C-3.52269162 9.5410574 -3.04308958 8.08286504 -2.5625 6.625 C-2.29566406 5.81289063 -2.02882813 5.00078125 -1.75390625 4.1640625 C-1 2 -1 2 0 0 Z " fill="#005AAB" transform="translate(437,307)"/>
<path d="M0 0 C0.99 0 1.98 0 3 0 C4.59884652 4.19697212 5.45657752 7.51217708 5 12 C3.2421875 14.859375 3.2421875 14.859375 0.875 17.75 C-3.23685716 22.94665991 -6.74684791 28.23362846 -10 34 C-8.53626953 33.566875 -8.53626953 33.566875 -7.04296875 33.125 C-5.75787385 32.74978981 -4.47271419 32.37480138 -3.1875 32 C-1.92292969 31.62875 -0.65835937 31.2575 0.64453125 30.875 C4 30 4 30 7 30 C7 28.35 7 26.7 7 25 C7.99 25 8.98 25 10 25 C10.50559908 26.43554025 11.0042749 27.8735202 11.5 29.3125 C11.7784375 30.11300781 12.056875 30.91351563 12.34375 31.73828125 C13 34 13 34 13 37 C11.68 36.67 10.36 36.34 9 36 C9 35.34 9 34.68 9 34 C7.75911621 34.37137085 7.75911621 34.37137085 6.49316406 34.75024414 C3.41668614 35.66580086 0.33773601 36.57234708 -2.74316406 37.47290039 C-4.07495129 37.86417365 -5.40569997 38.25900035 -6.73535156 38.6574707 C-8.64890862 39.23025068 -10.56660868 39.78913152 -12.484375 40.34765625 C-13.63647461 40.68804932 -14.78857422 41.02844238 -15.97558594 41.37915039 C-18.85513805 41.97026284 -20.29528189 42.02442649 -23 41 C-23.41117305 36.54312428 -22.33320831 34.42615023 -19.7890625 30.8046875 C-19.12132812 29.84175781 -18.45359375 28.87882812 -17.765625 27.88671875 C-17.05921875 26.89285156 -16.3528125 25.89898437 -15.625 24.875 C-14.92632812 23.87339844 -14.22765625 22.87179688 -13.5078125 21.83984375 C-12.21183718 19.98310987 -10.91105324 18.12971677 -9.60400391 16.28076172 C-8.3780541 14.53756185 -7.1821361 12.77320415 -6 11 C-7.20398438 11.3609375 -8.40796875 11.721875 -9.6484375 12.09375 C-11.22391596 12.5626424 -12.79943912 13.03138463 -14.375 13.5 C-15.1690625 13.73847656 -15.963125 13.97695312 -16.78125 14.22265625 C-17.54179687 14.44824219 -18.30234375 14.67382812 -19.0859375 14.90625 C-20.1385376 15.22045898 -20.1385376 15.22045898 -21.21240234 15.54101562 C-23 16 -23 16 -25 16 C-25.33 17.65 -25.66 19.3 -26 21 C-26.66 21 -27.32 21 -28 21 C-28.99 17.04 -29.98 13.08 -31 9 C-29.68 9.33 -28.36 9.66 -27 10 C-27 10.66 -27 11.32 -27 12 C-22.67926667 10.77732724 -18.37030644 9.51739845 -14.0625 8.25 C-12.83080078 7.90195313 -11.59910156 7.55390625 -10.33007812 7.1953125 C-9.16025391 6.84726563 -7.99042969 6.49921875 -6.78515625 6.140625 C-5.70113525 5.82641602 -4.61711426 5.51220703 -3.50024414 5.18847656 C-0.82636189 4.26317792 -0.82636189 4.26317792 -0.13842773 1.86621094 C-0.09274658 1.25036133 -0.04706543 0.63451172 0 0 Z " fill="#005AAB" transform="translate(462,181)"/>
<path d="M0 0 C0.495 1.485 0.495 1.485 1 3 C-0.32 3.33 -1.64 3.66 -3 4 C-2.82871582 4.58378418 -2.65743164 5.16756836 -2.48095703 5.76904297 C-1.69126704 8.46977207 -0.90811106 11.17235625 -0.125 13.875 C0.14441406 14.7928125 0.41382813 15.710625 0.69140625 16.65625 C4.28308442 29.09572074 4.28308442 29.09572074 5 35 C4 36 4 36 1.70092773 36.23144531 C-1.45510021 35.96100199 -2.70540665 35.18576796 -5.21484375 33.296875 C-5.98376953 32.72839844 -6.75269531 32.15992188 -7.54492188 31.57421875 C-8.33447266 30.97222656 -9.12402344 30.37023437 -9.9375 29.75 C-11.50846453 28.57725371 -13.080066 27.4053601 -14.65234375 26.234375 C-15.34320068 25.71069336 -16.03405762 25.18701172 -16.74584961 24.64746094 C-19.43737507 22.6803415 -22.22615494 20.84923004 -25 19 C-23.68 25.27 -22.36 31.54 -21 38 C-19.02 37.505 -19.02 37.505 -17 37 C-16.67 37.99 -16.34 38.98 -16 40 C-17.24663331 40.50833591 -18.49749387 41.00631145 -19.75 41.5 C-20.44609375 41.7784375 -21.1421875 42.056875 -21.859375 42.34375 C-24 43 -24 43 -28 43 C-28 42.01 -28 41.02 -28 40 C-27.01 39.505 -27.01 39.505 -26 39 C-26.26554688 37.88882813 -26.53109375 36.77765625 -26.8046875 35.6328125 C-28.67234181 27.78001456 -30.51792475 19.93690298 -32 12 C-33.32 12.33 -34.64 12.66 -36 13 C-36.33 11.68 -36.66 10.36 -37 9 C-33.20035983 7.08344141 -30.24373795 6.52440868 -26 7 C-20.12518554 10.01539149 -15.03964444 14.37048693 -9.92285156 18.50146484 C-7.72497686 20.21433368 -5.44322105 21.66158209 -3 23 C-3.61667207 20.53929884 -4.24288393 18.08173479 -4.875 15.625 C-5.04902344 14.92632812 -5.22304687 14.22765625 -5.40234375 13.5078125 C-6.44145274 9.35125264 -6.44145274 9.35125264 -9 6 C-9.66 6 -10.32 6 -11 6 C-11.33 5.01 -11.66 4.02 -12 3 C-10.56445975 2.49440092 -9.1264798 1.9957251 -7.6875 1.5 C-6.48673828 1.08234375 -6.48673828 1.08234375 -5.26171875 0.65625 C-3 0 -3 0 0 0 Z " fill="#005AAB" transform="translate(219,40)"/>
<path d="M0 0 C4.41067784 2.58671332 7.32355174 5.45960349 9.640625 10.09375 C11.23972277 16.26169854 10.41791984 21.54584187 7.6015625 27.16796875 C4.8526924 31.82331327 1.58983381 35.42006739 -2.359375 39.09375 C-5.31347201 37.72220496 -7.79945876 36.10511276 -10.359375 34.09375 C-10.029375 33.10375 -9.699375 32.11375 -9.359375 31.09375 C-8.4725 31.361875 -7.585625 31.63 -6.671875 31.90625 C-3.19609971 32.47737652 -3.19609971 32.47737652 -0.609375 29.84375 C2.77119945 25.78814184 2.77119945 25.78814184 4.015625 20.78125 C3.56922399 16.39164005 2.46356845 14.45076383 -0.359375 11.09375 C-4.24850414 7.96084041 -8.42066525 6.92912634 -13.359375 7.09375 C-17.54560487 8.59447391 -20.12792281 10.21806989 -22.359375 14.09375 C-23.06452346 16.24108927 -23.06452346 16.24108927 -23.359375 18.09375 C-21.379375 18.75375 -19.399375 19.41375 -17.359375 20.09375 C-16.699375 19.10375 -16.039375 18.11375 -15.359375 17.09375 C-14.369375 17.42375 -13.379375 17.75375 -12.359375 18.09375 C-14.00115765 22.86984498 -16.62484202 26.88757904 -19.359375 31.09375 C-20.349375 30.76375 -21.339375 30.43375 -22.359375 30.09375 C-22.359375 29.10375 -22.359375 28.11375 -22.359375 27.09375 C-23.143125 26.784375 -23.926875 26.475 -24.734375 26.15625 C-27.359375 25.09375 -27.359375 25.09375 -29.359375 24.09375 C-28.94003675 16.54566145 -26.79467788 9.82286168 -21.578125 4.16015625 C-15.47322477 -1.23336789 -7.85375099 -3.01667257 0 0 Z " fill="#005AAB" transform="translate(435.359375,351.90625)"/>
<path d="M0 0 C2.86455513 1.96972267 5.46345746 4.088199 8.05078125 6.41015625 C7.57875639 10.65837999 5.08422607 12.61005334 2.05078125 15.41015625 C1.47800648 13.20088215 1.03468059 11.19548081 0.86328125 8.91015625 C-0.36057616 5.14444115 -2.52306744 4.22019845 -5.94921875 2.41015625 C-9.65906022 1.25083079 -11.38131055 1.21706746 -15.07421875 2.47265625 C-19.28674845 5.31153496 -21.35628353 8.6313506 -22.94921875 13.41015625 C-23.21554793 17.00560014 -23.2120011 19.70392868 -21.94921875 23.09765625 C-19.15034699 26.33385172 -15.84069056 27.75558748 -11.94921875 29.41015625 C-11.28921875 27.43015625 -10.62921875 25.45015625 -9.94921875 23.41015625 C-10.93921875 22.75015625 -11.92921875 22.09015625 -12.94921875 21.41015625 C-12.94921875 20.42015625 -12.94921875 19.43015625 -12.94921875 18.41015625 C-9.18892025 18.99123257 -6.41886843 20.06215121 -3.13671875 21.97265625 C-2.34652344 22.42769531 -1.55632812 22.88273437 -0.7421875 23.3515625 C-0.15050781 23.70089844 0.44117188 24.05023438 1.05078125 24.41015625 C1.05078125 25.40015625 1.05078125 26.39015625 1.05078125 27.41015625 C-0.43421875 27.90515625 -0.43421875 27.90515625 -1.94921875 28.41015625 C-3.17367159 30.03963689 -3.17367159 30.03963689 -4.13671875 31.97265625 C-5.03390625 33.67421875 -5.03390625 33.67421875 -5.94921875 35.41015625 C-16.13387265 33.20264506 -23.69914387 31.16026108 -29.94921875 22.41015625 C-32.14446256 18.33327488 -32.47669068 15.00669739 -31.94921875 10.41015625 C-29.67304208 4.07984518 -27.18884084 -0.53641167 -20.94921875 -3.58984375 C-13.50061897 -5.9444631 -6.47705166 -3.94605456 0 0 Z " fill="#005AAB" transform="translate(374.94921875,70.58984375)"/>
<path d="M0 0 C1.11826172 0.13857422 2.23652344 0.27714844 3.38867188 0.41992188 C5.13954102 0.64711914 5.13954102 0.64711914 6.92578125 0.87890625 C8.69405273 1.10030273 8.69405273 1.10030273 10.49804688 1.32617188 C13.4122698 1.69192455 16.32556047 2.06390751 19.23828125 2.44140625 C19.56828125 1.45140625 19.89828125 0.46140625 20.23828125 -0.55859375 C21.22828125 -0.55859375 22.21828125 -0.55859375 23.23828125 -0.55859375 C22.57828125 4.72140625 21.91828125 10.00140625 21.23828125 15.44140625 C19.91828125 15.11140625 18.59828125 14.78140625 17.23828125 14.44140625 C17.23828125 13.78140625 17.23828125 13.12140625 17.23828125 12.44140625 C9.36155694 10.33760707 1.43994461 8.29108188 -6.76171875 9.44140625 C-9.58042162 12.26010912 -9.49210285 14.5319757 -9.76171875 18.44140625 C-9.11707719 20.63142852 -9.11707719 20.63142852 -7.76171875 22.44140625 C-5.94968231 23.3329318 -5.94968231 23.3329318 -3.8046875 23.671875 C-3.02158203 23.83494141 -2.23847656 23.99800781 -1.43164062 24.16601562 C-0.61244141 24.31876953 0.20675781 24.47152344 1.05078125 24.62890625 C1.85837891 24.79326172 2.66597656 24.95761719 3.49804688 25.12695312 C5.74205355 25.58090042 7.989118 26.01387935 10.23828125 26.44140625 C11.90511064 26.77392495 13.5718751 27.10677297 15.23828125 27.44140625 C15.56828125 26.12140625 15.89828125 24.80140625 16.23828125 23.44140625 C17.22828125 23.77140625 18.21828125 24.10140625 19.23828125 24.44140625 C18.57828125 28.40140625 17.91828125 32.36140625 17.23828125 36.44140625 C16.24828125 36.11140625 15.25828125 35.78140625 14.23828125 35.44140625 C13.90828125 34.45140625 13.57828125 33.46140625 13.23828125 32.44140625 C11.01400058 31.63496342 11.01400058 31.63496342 8.28515625 31.23046875 C7.27324219 31.03710938 6.26132812 30.84375 5.21875 30.64453125 C3.08159349 30.26206551 0.94357477 29.88438377 -1.1953125 29.51171875 C-11.13959787 27.59596289 -11.13959787 27.59596289 -14.76171875 22.44140625 C-16.81182824 17.04015626 -15.72616895 11.64291295 -13.71875 6.390625 C-12.45858934 3.82401207 -11.04660683 2.15507231 -8.76171875 0.44140625 C-5.36924327 -0.68941891 -3.52313944 -0.44709891 0 0 Z " fill="#005AAB" transform="translate(454.76171875,274.55859375)"/>
<path d="M0 0 C0.99 0.33 1.98 0.66 3 1 C3.33 1.99 3.66 2.98 4 4 C5.91714268 5.07820563 5.91714268 5.07820563 8.296875 5.8671875 C9.1734375 6.19589844 10.05 6.52460938 10.953125 6.86328125 C12.80139325 7.53185873 14.65034132 8.19856016 16.5 8.86328125 C22.41848371 11.08703902 27.04231292 13.08462584 30 19 C30.56896774 26.11209676 28.94269627 31.25736997 24.875 37 C20.87036161 39.7858354 17.75967012 39.48384787 13 39 C9.56370731 38.22005638 6.26704377 37.14687155 2.9375 36 C1.6390918 35.57074219 1.6390918 35.57074219 0.31445312 35.1328125 C-1.79463984 34.43366566 -3.89888289 33.72268947 -6 33 C-6.66 33.66 -7.32 34.32 -8 35 C-8.99 35 -9.98 35 -11 35 C-10.37321829 31.33827525 -9.35548154 28.1181005 -7.9375 24.6875 C-7.57527344 23.80449219 -7.21304688 22.92148438 -6.83984375 22.01171875 C-6.56269531 21.34785156 -6.28554688 20.68398437 -6 20 C-5.01 20 -4.02 20 -3 20 C-3 21.32 -3 22.64 -3 24 C-0.12854755 25.01132916 2.74645223 26.00924402 5.625 27 C6.83736328 27.42925781 6.83736328 27.42925781 8.07421875 27.8671875 C12.46906004 29.36786502 16.29171201 30.59580187 21 30 C23.38545132 27.29648851 23.94654613 25.44544889 24.375 21.875 C23.94342472 18.56625616 23.51713902 18.0417219 21 16 C18.80121379 14.96374223 18.80121379 14.96374223 16.33203125 14.17578125 C15.43935547 13.86962891 14.54667969 13.56347656 13.62695312 13.24804688 C12.69818359 12.93931641 11.76941406 12.63058594 10.8125 12.3125 C9.87212891 11.99216797 8.93175781 11.67183594 7.96289062 11.34179688 C5.64447175 10.55329908 3.32360457 9.77305452 1 9 C0.67 9.99 0.34 10.98 0 12 C-0.99 12 -1.98 12 -3 12 C-2.68950274 10.56206608 -2.3765224 9.1246682 -2.0625 7.6875 C-1.88847656 6.88699219 -1.71445312 6.08648437 -1.53515625 5.26171875 C-1 3 -1 3 0 0 Z " fill="#005AAB" transform="translate(54,169)"/>
<path d="M0 0 C1.875 0.625 1.875 0.625 4 2 C5.25 5.125 5.25 5.125 6 8 C5.13375 7.7525 4.2675 7.505 3.375 7.25 C-0.98859312 6.92677088 -2.6341724 8.35542117 -6 11 C-4.02 13.64 -2.04 16.28 0 19 C1.32 18.01 2.64 17.02 4 16 C4.33425735 13.37374861 4.33425735 13.37374861 4 11 C7.25597758 11.24118352 8.7276304 12.52224212 10.8125 14.875 C11.534375 15.90625 12.25625 16.9375 13 18 C12.67 18.99 12.34 19.98 12 21 C11.236875 20.79375 10.47375 20.5875 9.6875 20.375 C6.78114056 19.66608797 6.78114056 19.66608797 4 22 C4.57352893 25.87132028 6.48704352 28.08172796 9 31 C13.67461525 29.42153927 13.67461525 29.42153927 17 26 C16.76716851 22.85078091 16.76716851 22.85078091 16 20 C18.71928517 20.37507382 19.84218661 20.84218661 21.8125 22.8125 C23 25 23 25 22.96875 26.8203125 C21.46437284 30.2051611 18.60788267 31.94752145 15.6875 34.0625 C15.10548828 34.49626953 14.52347656 34.93003906 13.92382812 35.37695312 C12.28900213 36.59335254 10.64475476 37.79705971 9 39 C8.24332031 39.59683594 7.48664063 40.19367188 6.70703125 40.80859375 C5 42 5 42 3 42 C2.77054688 41.14535156 2.54109375 40.29070312 2.3046875 39.41015625 C0.82242145 35.53585008 -1.29792205 32.62691572 -3.875 29.4375 C-4.30941406 28.88642578 -4.74382812 28.33535156 -5.19140625 27.76757812 C-6.04681472 26.68483137 -6.90800468 25.60662284 -7.77539062 24.53344727 C-8.93130736 23.08601644 -10.0415409 21.60244149 -11.1484375 20.1171875 C-12.83789591 17.70569817 -12.83789591 17.70569817 -15.75 17.6875 C-16.4925 17.790625 -17.235 17.89375 -18 18 C-18.33 17.01 -18.66 16.02 -19 15 C-17.69675781 14.00419922 -17.69675781 14.00419922 -16.3671875 12.98828125 C-15.2030743 12.09642033 -14.03901467 11.2044895 -12.875 10.3125 C-12.30523437 9.87744141 -11.73546875 9.44238281 -11.1484375 8.99414062 C-7.35374828 6.0834415 -3.65577385 3.08351746 0 0 Z " fill="#005AAB" transform="translate(132,75)"/>
<path d="M0 0 C5.85318812 5.36158177 7.57168584 15.01693029 8.125 22.625 C7.8416593 26.662605 7.15273385 28.84682369 4.875 32.1875 C0.88180682 34.84962879 -2.3540269 35.98266218 -7.125 35.1875 C-13.75709174 31.20824495 -15.61053432 25.36697263 -17.7109375 18.18359375 C-18.84731717 12.70538608 -18.87817103 7.74963251 -16.4375 2.6875 C-11.72570584 -2.40633153 -6.0809391 -3.52694468 0 0 Z M-11.125 3.1875 C-12.27387945 8.64996365 -11.81444496 12.58443598 -9.9375 17.75 C-9.72802734 18.38357422 -9.51855469 19.01714844 -9.30273438 19.66992188 C-7.78548219 24.04158915 -5.80070666 27.46901259 -3.125 31.1875 C-1.805 30.8575 -0.485 30.5275 0.875 30.1875 C2.19678025 25.70530926 1.45189466 22.6777898 0.125 18.25 C-0.22046875 17.06535156 -0.5659375 15.88070313 -0.921875 14.66015625 C-2.41818115 10.34127258 -3.8632995 6.4492005 -7.125 3.1875 C-8.445 3.1875 -9.765 3.1875 -11.125 3.1875 Z " fill="#005AAB" transform="translate(319.125,439.8125)"/>
<path d="M0 0 C0.66 1.32 1.32 2.64 2 4 C1.47792969 4.63164062 0.95585937 5.26328125 0.41796875 5.9140625 C-1.59644426 8.36240336 -3.60156289 10.81798213 -5.60009766 13.27929688 C-6.56059413 14.45990014 -7.52396493 15.63816902 -8.48974609 16.81445312 C-10.00248491 18.66060598 -11.50224127 20.51668344 -13 22.375 C-13.48057861 22.95717285 -13.96115723 23.5393457 -14.45629883 24.13916016 C-17.03409557 27.36430639 -18.62646201 29.84438982 -19 34 C-20.796875 33.91015625 -20.796875 33.91015625 -23 33 C-24.703125 30.05859375 -24.703125 30.05859375 -26.25 26.4375 C-26.77078125 25.23996094 -27.2915625 24.04242188 -27.828125 22.80859375 C-28.40820312 21.41833984 -28.40820312 21.41833984 -29 20 C-26 19 -26 19 -22 19 C-21.34 18.01 -20.68 17.02 -20 16 C-20.66 14.88625 -21.32 13.7725 -22 12.625 C-24 9.25 -24 9.25 -24 7 C-26.31 7 -28.62 7 -31 7 C-31 8.65 -31 10.3 -31 12 C-31.99 12 -32.98 12 -34 12 C-34.67408308 10.73308493 -35.33900497 9.46129251 -36 8.1875 C-36.37125 7.47980469 -36.7425 6.77210938 -37.125 6.04296875 C-38 4 -38 4 -38 1 C-37.01 1 -36.02 1 -35 1 C-35 1.66 -35 2.32 -35 3 C-34.1529248 2.90912109 -33.30584961 2.81824219 -32.43310547 2.72460938 C-29.26881575 2.38664607 -26.10424191 2.0515167 -22.93945312 1.71826172 C-21.57377402 1.57387701 -20.20821131 1.4283867 -18.84277344 1.28173828 C-16.87206015 1.07028218 -14.90087647 0.86322484 -12.9296875 0.65625 C-11.74616699 0.53056641 -10.56264648 0.40488281 -9.34326172 0.27539062 C-6.20959938 0.01726509 -3.14234003 -0.05021049 0 0 Z M-20 6 C-19.34 7.98 -18.68 9.96 -18 12 C-17.01 12 -16.02 12 -15 12 C-13.53909212 10.4645122 -13.53909212 10.4645122 -12.3125 8.5 C-11.87550781 7.8503125 -11.43851562 7.200625 -10.98828125 6.53125 C-10.66214844 6.0259375 -10.33601563 5.520625 -10 5 C-13.5219721 4.91995518 -16.61981469 4.95994298 -20 6 Z " fill="#005AAB" transform="translate(452,154)"/>
<path d="M0 0 C4.36784378 2.41625401 6.4066772 5.30389068 8 10 C8.23610158 14.0137268 8.17542254 17.98477289 8 22 C5.03 22.66 2.06 23.32 -1 24 C-1.33 23.01 -1.66 22.02 -2 21 C-1.175 20.649375 -0.35 20.29875 0.5 19.9375 C3.37373618 18.16460997 3.37373618 18.16460997 3.5625 14.5625 C3.25789913 11.00167197 3.25789913 11.00167197 1.3125 8.5 C-0.92004333 6.68757742 -0.92004333 6.68757742 -3.64453125 7.40625 C-4.42183594 7.6021875 -5.19914062 7.798125 -6 8 C-6.02126953 9.53720703 -6.02126953 9.53720703 -6.04296875 11.10546875 C-6.08989016 12.46618971 -6.13813744 13.82686541 -6.1875 15.1875 C-6.19330078 15.86103516 -6.19910156 16.53457031 -6.20507812 17.22851562 C-6.37282718 21.0494664 -6.92050593 22.89656194 -9.26953125 25.953125 C-12.79627553 28.59692186 -14.60139321 28.68234561 -18.8515625 28.4140625 C-22.20635768 27.76750197 -23.76747533 26.56083712 -26 24 C-29.08256959 18.57892935 -29.37059832 14.05310594 -29 8 C-22.25 6 -22.25 6 -20 6 C-20 7.32 -20 8.64 -20 10 C-21.98 10.99 -21.98 10.99 -24 12 C-23.67039784 17.01535052 -23.67039784 17.01535052 -21 21 C-18.39719432 20.67958603 -18.39719432 20.67958603 -16 20 C-14.98017727 16.71647986 -15.04161627 13.97715152 -15.25 10.5625 C-15.26041809 6.66613486 -15.15124378 5.25711442 -13.125 1.8125 C-8.70567595 -0.75070795 -4.99117707 -0.87982858 0 0 Z " fill="#005AAB" transform="translate(73,302)"/>
<path d="M0 0 C3.61369831 2.15284155 5.42143353 4.15353672 7 8 C8.0228897 15.44568553 7.04352482 22.59308533 3 29 C-1.36390507 33.32000261 -5.43106675 35.95645876 -11.6875 36.0625 C-12.780625 36.041875 -13.87375 36.02125 -15 36 C-15.33 34.68 -15.66 33.36 -16 32 C-14.7625 31.938125 -13.525 31.87625 -12.25 31.8125 C-8.81784849 31.39260912 -8.14030955 31.13329407 -5.5 28.625 C-3.75193053 26.06976954 -3.75193053 26.06976954 -4 23 C-5.5778125 23.1546875 -5.5778125 23.1546875 -7.1875 23.3125 C-11 23 -11 23 -13.9375 21.125 C-16.83371205 16.73679993 -16.90093931 13.11897335 -16 8 C-12.19905367 0.66024157 -7.90257681 -1.13885993 0 0 Z M-7 4 C-9.09678815 7.40728075 -9.4133256 10.03207421 -9 14 C-7.62073227 16.34261608 -7.62073227 16.34261608 -6 18 C-4.04105639 17.88693303 -4.04105639 17.88693303 -2 17 C0.33107124 13.11488126 0.05359936 10.3101792 -1 6 C-1.33 5.34 -1.66 4.68 -2 4 C-3.65 4 -5.3 4 -7 4 Z " fill="#005AAB" transform="translate(243,445)"/>
<path d="M0 0 C5.75 1.75 5.75 1.75 8 4 C8 4.99 8 5.98 8 7 C6.02 7 4.04 7 2 7 C1.34 8.65 0.68 10.3 0 12 C3.35905145 14.04827851 6.73940116 16.05845836 10.125 18.0625 C11.55199219 18.93358398 11.55199219 18.93358398 13.0078125 19.82226562 C14.4 20.63920898 14.4 20.63920898 15.8203125 21.47265625 C16.66867676 21.98062744 17.51704102 22.48859863 18.39111328 23.01196289 C21.63830886 24.24174022 23.6737611 23.8177535 27 23 C26.31238981 26.65564909 24.74550455 29.51867272 22.9375 32.75 C22.38964844 33.73484375 21.84179688 34.7196875 21.27734375 35.734375 C20.85582031 36.48203125 20.43429688 37.2296875 20 38 C19.01 37.67 18.02 37.34 17 37 C16.93176025 36.23921143 16.86352051 35.47842285 16.79321289 34.69458008 C16.23830596 31.87476503 16.23830596 31.87476503 13.95874023 30.33081055 C12.64691772 29.61598511 12.64691772 29.61598511 11.30859375 28.88671875 C10.36435547 28.36142578 9.42011719 27.83613281 8.44726562 27.29492188 C7.45404297 26.76447266 6.46082031 26.23402344 5.4375 25.6875 C4.44041016 25.13771484 3.44332031 24.58792969 2.41601562 24.02148438 C-0.04810984 22.66562587 -2.51977193 21.3261033 -5 20 C-5.99 21.98 -6.98 23.96 -8 26 C-7.34 26.66 -6.68 27.32 -6 28 C-6 28.99 -6 29.98 -6 31 C-9.34373475 30.44271087 -12.03312999 29.64826111 -15 28 C-13.60582632 24.29102741 -11.92181521 20.92161688 -9.9609375 17.48046875 C-9.09082031 15.9480957 -9.09082031 15.9480957 -8.203125 14.38476562 C-7.59984375 13.32966797 -6.9965625 12.27457031 -6.375 11.1875 C-5.76398438 10.11306641 -5.15296875 9.03863281 -4.5234375 7.93164062 C-3.01844115 5.28613924 -1.51054209 2.6423375 0 0 Z " fill="#005AAB" transform="translate(73,135)"/>
<path d="M0 0 C2.86207152 1.28299758 5.0245088 2.530636 7 5 C7 5.99 7 6.98 7 8 C4.03 7.505 4.03 7.505 1 7 C-0.32 8.65 -1.64 10.3 -3 12 C5.92058426 21.17445979 5.92058426 21.17445979 16 29 C18.15274948 28.69159401 18.15274948 28.69159401 20 28 C19.41965777 31.83377596 17.6736413 33.89328118 15.125 36.75 C14.42632812 37.54921875 13.72765625 38.3484375 13.0078125 39.171875 C11 41 11 41 8 41 C8.14953125 40.17113281 8.2990625 39.34226563 8.453125 38.48828125 C7.76354846 33.17973083 4.52628048 30.76484518 0.75 27.1875 C-0.27287109 26.1675293 -0.27287109 26.1675293 -1.31640625 25.12695312 C-5.51068126 20.91325749 -5.51068126 20.91325749 -11 19 C-12.485 21.475 -12.485 21.475 -14 24 C-13.34 24.99 -12.68 25.98 -12 27 C-12.33 27.66 -12.66 28.32 -13 29 C-15.95409701 27.62845496 -18.44008376 26.01136276 -21 24 C-19.55439289 20.6707371 -17.74603328 18.52258603 -15.15625 15.99609375 C-14.02896484 14.88524414 -14.02896484 14.88524414 -12.87890625 13.75195312 C-12.09386719 12.98818359 -11.30882813 12.22441406 -10.5 11.4375 C-8.94568662 9.91764184 -7.39350712 8.39559753 -5.84375 6.87109375 C-4.81024414 5.86453735 -4.81024414 5.86453735 -3.75585938 4.83764648 C-1.81983589 2.9179867 -1.81983589 2.9179867 0 0 Z " fill="#005AAB" transform="translate(107,95)"/>
<path d="M0 0 C2.11636105 4.23272211 2.70410474 7.37482121 1.5 12 C-1.28793435 16.77481064 -4.58978887 21.08978887 -8.5 25 C-3.88 25 0.74 25 5.5 25 C5.5 27.31 5.5 29.62 5.5 32 C2.62543208 32.33747548 -0.24956059 32.67010463 -3.125 33 C-3.93324219 33.09539062 -4.74148438 33.19078125 -5.57421875 33.2890625 C-9.90973739 33.78253617 -14.12737311 34.11320717 -18.5 34 C-18.35922561 28.36902425 -15.91508524 25.99150447 -12.29296875 22.078125 C-8.68776228 17.89954147 -6.35096107 14.08654506 -6.75 8.5 C-6.9975 7.675 -7.245 6.85 -7.5 6 C-11.08327753 4.99782936 -11.08327753 4.99782936 -14.5 6 C-15.22159424 7.64363134 -15.89351421 9.31050386 -16.5 11 C-17.49 11 -18.48 11 -19.5 11 C-19.60824843 9.3973218 -19.68570645 7.79254252 -19.75 6.1875 C-19.79640625 5.29417969 -19.8428125 4.40085937 -19.890625 3.48046875 C-19.5 1 -19.5 1 -17.625 -0.77734375 C-12.07205402 -3.97232921 -5.046938 -4.0375504 0 0 Z " fill="#005AAB" transform="translate(284.5,448)"/>
<path d="M0 0 C-0.33 0.99 -0.66 1.98 -1 3 C-1.99 3.33 -2.98 3.66 -4 4 C-4 6.31 -4 8.62 -4 11 C-3.35973877 10.90912109 -2.71947754 10.81824219 -2.05981445 10.72460938 C0.85546801 10.31285377 3.77146327 9.906378 6.6875 9.5 C7.69490234 9.35691406 8.70230469 9.21382813 9.74023438 9.06640625 C11.20493164 8.86337891 11.20493164 8.86337891 12.69921875 8.65625 C13.59471436 8.53056641 14.49020996 8.40488281 15.4128418 8.27539062 C17.96397361 8.00383484 20.4366743 7.95152103 23 8 C23 6.68 23 5.36 23 4 C23.99 4 24.98 4 26 4 C26.66 9.28 27.32 14.56 28 20 C27.01 20 26.02 20 25 20 C24.505 18.02 24.505 18.02 24 16 C23.39526855 16.09087891 22.79053711 16.18175781 22.16748047 16.27539062 C19.4039706 16.6880917 16.63951646 17.09409877 13.875 17.5 C12.92367187 17.64308594 11.97234375 17.78617187 10.9921875 17.93359375 C6.28805294 18.61961337 1.7695743 19.19271007 -3 19 C-2.67 21.64 -2.34 24.28 -2 27 C-0.35 27 1.3 27 3 27 C3 27.99 3 28.98 3 30 C1 31 1 31 -6 31 C-7.32 20.77 -8.64 10.54 -10 0 C-3 -1 -3 -1 0 0 Z " fill="#005AAB" transform="translate(46,270)"/>
<path d="M0 0 C2.97 0.33 5.94 0.66 9 1 C9 1.99 9 2.98 9 4 C7.35 4 5.7 4 4 4 C3.67 6.64 3.34 9.28 3 12 C16.365 13.485 16.365 13.485 30 15 C30 14.01 30 13.02 30 12 C31.32 12 32.64 12 34 12 C33.34 17.28 32.68 22.56 32 28 C31.01 28 30.02 28 29 28 C28.505 26.515 28.505 26.515 28 25 C22.13008317 23.14563991 16.07721435 22.28984947 10 21.375 C9.12988281 21.2409375 8.25976562 21.106875 7.36328125 20.96875 C5.24269669 20.64250622 3.1214181 20.32077895 1 20 C1 22.64 1 25.28 1 28 C2.32 28.33 3.64 28.66 5 29 C5 29.99 5 30.98 5 32 C2.03 31.67 -0.94 31.34 -4 31 C-3.23386365 20.58054567 -1.60650503 10.31598512 0 0 Z " fill="#005AAB" transform="translate(41,211)"/>
<path d="M0 0 C5.28 0.66 10.56 1.32 16 2 C16 2.99 16 3.98 16 5 C14.68 5.33 13.36 5.66 12 6 C10.68 14.58 9.36 23.16 8 32 C11.63 32 15.26 32 19 32 C19.99 30.68 20.98 29.36 22 28 C22.66 28.33 23.32 28.66 24 29 C23.34 31.97 22.68 34.94 22 38 C18.95808469 37.68978487 15.91648266 37.37690547 12.875 37.0625 C12.0190625 36.97548828 11.163125 36.88847656 10.28125 36.79882812 C5.82280819 36.33583609 1.41326006 35.80306863 -3 35 C-2.67 34.01 -2.34 33.02 -2 32 C-1.34 32 -0.68 32 0 32 C0.04898437 31.319375 0.09796875 30.63875 0.1484375 29.9375 C0.81839689 21.25112997 1.87119713 12.63588992 3 4 C1.68 3.34 0.36 2.68 -1 2 C-0.67 1.34 -0.34 0.68 0 0 Z " fill="#005AAB" transform="translate(274,38)"/>
<path d="M0 0 C-1.3700069 5.15701783 -2.78131315 10.29850016 -4.3125 15.41015625 C-4.5391333 16.16820557 -4.7657666 16.92625488 -4.99926758 17.70727539 C-5.45391326 19.22184708 -5.91202105 20.73538433 -6.3737793 22.24780273 C-7.27882632 25.26566524 -8 27.83076053 -8 31 C-6.68 31.66 -5.36 32.32 -4 33 C-4 33.99 -4 34.98 -4 36 C-10.95023264 35.35346673 -17.38177303 33.13972752 -24 31 C-24 30.01 -24 29.02 -24 28 C-22.02 28 -20.04 28 -18 28 C-17.59007812 26.77023437 -17.18015625 25.54046875 -16.7578125 24.2734375 C-14.50520833 17.515625 -12.25260417 10.7578125 -10 4 C-14.455 4.495 -14.455 4.495 -19 5 C-18.67 3.35 -18.34 1.7 -18 0 C-15.3753399 -0.19430855 -12.75053235 -0.38073238 -10.125 -0.5625 C-9.00544922 -0.64661133 -9.00544922 -0.64661133 -7.86328125 -0.73242188 C-2.2265625 -1.11328125 -2.2265625 -1.11328125 0 0 Z " fill="#005AAB" transform="translate(211,440)"/>
<path d="M0 0 C0.66 0.66 1.32 1.32 2 2 C1.46109131 2.30180176 0.92218262 2.60360352 0.36694336 2.91455078 C-2.11413131 4.31003891 -4.58827379 5.71740779 -7.0625 7.125 C-8.33383789 7.8365625 -8.33383789 7.8365625 -9.63085938 8.5625 C-17.58213434 13.1060857 -23.79479068 17.7718856 -28.625 25.625 C-29.00325928 26.2245752 -29.38151855 26.82415039 -29.77124023 27.44189453 C-33.1929353 33.01489328 -35.76131654 38.85768256 -38 45 C-39.65 44.67 -41.3 44.34 -43 44 C-43.61151923 33.52440975 -37.87911809 24.72667554 -31.1875 17.0625 C-24.03240308 9.69090999 -11.15695356 -1.95246687 0 0 Z " fill="#0E60AE" transform="translate(257,263)"/>
<path d="M0 0 C6.54696508 2.75661688 11.08613775 5.97200163 15 12 C16.04161628 14.72209054 16.53404259 17.10070944 17 20 C15.91460937 19.96519531 14.82921875 19.93039063 13.7109375 19.89453125 C12.26564058 19.86637612 10.82032679 19.83907781 9.375 19.8125 C8.30572266 19.77479492 8.30572266 19.77479492 7.21484375 19.73632812 C2.37723584 19.66975554 -0.74738338 20.44440547 -5 23 C-4.319375 23.9075 -3.63875 24.815 -2.9375 25.75 C-1 29 -1 29 -1.25 31.375 C-1.4975 31.91125 -1.745 32.4475 -2 33 C-5.64426928 29.43466796 -9.07255678 25.75851827 -12.375 21.875 C-12.83777344 21.35035156 -13.30054688 20.82570312 -13.77734375 20.28515625 C-15.0859375 18.7421875 -15.0859375 18.7421875 -17 16 C-16.67 15.01 -16.34 14.02 -16 13 C-12.31197956 14.22934015 -11.27643027 15.93859378 -9 19 C-4.81719135 17.60573045 -4.08872619 15.33528954 -2.07421875 11.56640625 C-0.44738745 7.67975838 -0.19967793 4.19323663 0 0 Z " fill="#0D5FAE" transform="translate(312,135)"/>
<path d="M0 0 C3.72189239 1.2406308 4.50770808 2.648274 6.75 5.8125 C7.38421875 6.68519531 8.0184375 7.55789063 8.671875 8.45703125 C10 11 10 11 9.703125 13.32421875 C9.47109375 13.87722656 9.2390625 14.43023437 9 15 C7.68 14.34 6.36 13.68 5 13 C2.43132396 14.72012377 -0.12872024 16.45269631 -2.6875 18.1875 C-3.7693457 18.91163086 -3.7693457 18.91163086 -4.87304688 19.65039062 C-12.16224881 24.33251649 -12.16224881 24.33251649 -16.8125 31.3125 C-16.874375 31.869375 -16.93625 32.42625 -17 33 C-17.66 33 -18.32 33 -19 33 C-20.98046875 30.48046875 -20.98046875 30.48046875 -23.1875 27.1875 C-23.92355469 26.10855469 -24.65960938 25.02960938 -25.41796875 23.91796875 C-26.20107422 22.47357422 -26.20107422 22.47357422 -27 21 C-26.505 19.515 -26.505 19.515 -26 18 C-25.44570312 18.39058594 -24.89140625 18.78117187 -24.3203125 19.18359375 C-21.95354834 20.3149839 -21.95354834 20.3149839 -19.5546875 18.91015625 C-18.67039062 18.30042969 -17.78609375 17.69070313 -16.875 17.0625 C-15.91722656 16.40636719 -14.95945312 15.75023437 -13.97265625 15.07421875 C-12.50119141 14.04748047 -12.50119141 14.04748047 -11 13 C-10.02933594 12.38769531 -9.05867188 11.77539062 -8.05859375 11.14453125 C-7.15238281 10.56058594 -6.24617188 9.97664063 -5.3125 9.375 C-4.48363281 8.84648437 -3.65476562 8.31796875 -2.80078125 7.7734375 C-0.71736908 6.10928753 -0.71736908 6.10928753 -0.79296875 3.3515625 C-0.89544922 2.18753906 -0.89544922 2.18753906 -1 1 C-0.67 0.67 -0.34 0.34 0 0 Z " fill="#005AAB" transform="translate(102,362)"/>
<path d="M0 0 C3.90829085 0.5647301 5.89920223 2.42131971 8.75 5.0625 C9.54921875 5.79597656 10.3484375 6.52945313 11.171875 7.28515625 C11.77515625 7.85105469 12.3784375 8.41695312 13 9 C12.67 9.99 12.34 10.98 12 12 C10.68 11.67 9.36 11.34 8 11 C5.89361205 13.41473837 3.79028926 15.83212755 1.6875 18.25 C1.09259766 18.93191406 0.49769531 19.61382812 -0.11523438 20.31640625 C-0.98051758 21.31220703 -0.98051758 21.31220703 -1.86328125 22.328125 C-2.39219971 22.9355957 -2.92111816 23.54306641 -3.46606445 24.16894531 C-5.84529953 26.99946552 -5.84529953 26.99946552 -8 30 C-7.77802187 32.6984589 -7.77802187 32.6984589 -7 35 C-11.7952637 35 -12.67554084 34.01007087 -16.25 31 C-17.14203125 30.2575 -18.0340625 29.515 -18.953125 28.75 C-19.62859375 28.1725 -20.3040625 27.595 -21 27 C-20.505 25.515 -20.505 25.515 -20 24 C-18.68 24.33 -17.36 24.66 -16 25 C-12.96448813 21.69747551 -9.97157379 18.36016421 -7 15 C-6.20335937 14.10410156 -5.40671875 13.20820312 -4.5859375 12.28515625 C-3.85632813 11.42792969 -3.12671875 10.57070312 -2.375 9.6875 C-1.36566406 8.51767578 -1.36566406 8.51767578 -0.3359375 7.32421875 C1.27920772 5.03869442 1.27920772 5.03869442 0.7109375 2.20703125 C0.47632813 1.47871094 0.24171875 0.75039062 0 0 Z " fill="#005AAB" transform="translate(392,85)"/>
<path d="M0 0 C0.99 0 1.98 0 3 0 C3 1.32 3 2.64 3 4 C16.86 4.495 16.86 4.495 31 5 C31 3.68 31 2.36 31 1 C31.99 1 32.98 1 34 1 C34 6.61 34 12.22 34 18 C33.01 17.67 32.02 17.34 31 17 C31 16.01 31 15.02 31 14 C21.43 13.67 11.86 13.34 2 13 C2 13.99 2 14.98 2 16 C1.01 16 0.02 16 -1 16 C-1.11138159 10.54230189 -0.91657981 5.38490641 0 0 Z " fill="#005AAB" transform="translate(37,247)"/>
<path d="M0 0 C2.0078125 0.4453125 2.0078125 0.4453125 5.0078125 3.0703125 C7.16913076 6.71753707 7.63794476 8.30444339 7.0078125 12.4453125 C5.80074371 15.78796455 5.08724401 16.39235816 2.0078125 18.4453125 C-2.21975191 19.1148715 -5.8211331 19.1772215 -9.4921875 16.8828125 C-11.49352162 13.63064456 -11.92529846 11.25798751 -11.9921875 7.4453125 C-9.47412852 1.77967979 -6.26938027 -0.16193971 0 0 Z " fill="#005AAB" transform="translate(131.9921875,404.5546875)"/>
<path d="M0 0 C2.43119623 1.87015094 3.64069173 3.28138345 5 6 C5.41314256 10.6478538 4.78987316 13.24440152 2 17 C-1.21155278 18.60577639 -4.516359 18.47382856 -8 18 C-11.52727646 16.04874068 -12.70999803 14.90867283 -13.9375 11.0625 C-14.02416118 6.81610235 -13.21228134 4.35215996 -10.375 1.1875 C-6.92059844 -0.53970078 -3.78646266 -0.72308219 0 0 Z " fill="#005AAB" transform="translate(389,405)"/>
<path d="M0 0 C4.78608706 2.1486476 7.74818652 5.50518862 10.109375 10.2109375 C11.23243803 13.72789805 11.45689235 17.15265641 11.625 20.8125 C11.66367187 21.50537109 11.70234375 22.19824219 11.7421875 22.91210938 C11.83573568 24.60767015 11.91892364 26.30379712 12 28 C5.296875 28.21875 5.296875 28.21875 2.625 26.25 C0.06149623 22.70053325 -0.12523493 19.53664881 -0.09765625 15.234375 C-0.09443359 14.34492188 -0.09121094 13.45546875 -0.08789062 12.5390625 C-0.07532227 11.15847656 -0.07532227 11.15847656 -0.0625 9.75 C-0.05798828 8.81414062 -0.05347656 7.87828125 -0.04882812 6.9140625 C-0.03706918 4.60930959 -0.02063426 2.30468773 0 0 Z " fill="#0B5FAD" transform="translate(261,150)"/>
<path d="M0 0 C0.14560195 3.72875388 0.23417043 7.45677434 0.3125 11.1875 C0.3753418 12.77014648 0.3753418 12.77014648 0.43945312 14.38476562 C0.56195582 22.15143648 0.56195582 22.15143648 -2.14453125 26.23828125 C-5.41653434 28.25698631 -7.22352399 28.43912512 -11 28 C-11.47086683 19.65519349 -11.46804749 12.306412 -7 5 C-2.4638009 0 -2.4638009 0 0 0 Z " fill="#0A5EAD" transform="translate(255,150)"/>
<path d="M0 0 C0.33 0 0.66 0 1 0 C1 3.63 1 7.26 1 11 C0.21496094 11.36351562 -0.57007813 11.72703125 -1.37890625 12.1015625 C-8.64940044 15.56493103 -8.64940044 15.56493103 -15 20.4375 C-15.99 21.283125 -16.98 22.12875 -18 23 C-21.05977731 22.69169544 -21.90028717 22.09971283 -24.125 19.875 C-26.30061827 16.53905198 -27.09288527 13.85523759 -28 10 C-26.02 9.34 -24.04 8.68 -22 8 C-22 8.66 -22 9.32 -22 10 C-21.24074219 9.9278125 -20.48148438 9.855625 -19.69921875 9.78125 C-18.70535156 9.6884375 -17.71148437 9.595625 -16.6875 9.5 C-15.70136719 9.4071875 -14.71523437 9.314375 -13.69921875 9.21875 C-11 9 -11 9 -8 9 C-6.32900023 8.68911632 -4.66128463 8.35919668 -3 8 C-2.690625 6.865625 -2.38125 5.73125 -2.0625 4.5625 C-1 1 -1 1 0 0 Z " fill="#0C5FAD" transform="translate(215,167)"/>
<path d="M0 0 C3.23729641 2.95579238 3.94317483 5.02741543 4.203125 9.4765625 C4.34620696 17.27076396 4.12229511 23.71464475 1 31 C0.01 30.01 -0.98 29.02 -2 28 C-1.67 27.67 -1.34 27.34 -1 27 C-1.08937803 25.47480724 -1.24537146 23.95318071 -1.4375 22.4375 C-1.53933594 21.61121094 -1.64117187 20.78492188 -1.74609375 19.93359375 C-1.82988281 19.29550781 -1.91367188 18.65742188 -2 18 C-2.969375 18.185625 -3.93875 18.37125 -4.9375 18.5625 C-5.948125 18.706875 -6.95875 18.85125 -8 19 C-9 18 -9 18 -9.1875 15.5625 C-9 13 -9 13 -7 11 C-7.99 10.01 -8.98 9.02 -10 8 C-9.34 6.68 -8.68 5.36 -8 4 C-5.69 4.33 -3.38 4.66 -1 5 C-0.67 3.35 -0.34 1.7 0 0 Z " fill="#E7EBF5" transform="translate(250,311)"/>
<path d="M0 0 C0.33 0.99 0.66 1.98 1 3 C0.01 4.175625 0.01 4.175625 -1 5.375 C-3.30303154 7.81550084 -3.30303154 7.81550084 -2.875 10.75 C-2.22480464 13.16739744 -2.22480464 13.16739744 0 14 C0.33 14.99 0.66 15.98 1 17 C1.66 17.309375 2.32 17.61875 3 17.9375 C5 19 5 19 5.75 21.125 C5.87375 22.053125 5.87375 22.053125 6 23 C7.32 23 8.64 23 10 23 C10 23.99 10 24.98 10 26 C10.99 26.33 11.98 26.66 13 27 C8.88337531 29.05831235 6.42997845 29.25017797 2 28 C-0.15342414 26.22776322 -1.93930266 24.58473088 -3.8125 22.5625 C-4.54629883 21.80743164 -4.54629883 21.80743164 -5.29492188 21.03710938 C-8.03244633 18.18599469 -9.72946736 16.26248563 -10.5625 12.375 C-9.6844976 7.10698558 -5.97932176 4.34806389 -2 1 C-1.34 0.67 -0.68 0.34 0 0 Z " fill="#1061AE" transform="translate(318,167)"/>
<path d="M0 0 C0.70125 0.28875 1.4025 0.5775 2.125 0.875 C2.41605568 6.47054553 1.50132274 10.64500574 -0.375 15.8125 C-0.61347656 16.49634766 -0.85195313 17.18019531 -1.09765625 17.88476562 C-1.68045882 19.55158097 -2.27637051 21.21380316 -2.875 22.875 C-3.535 22.875 -4.195 22.875 -4.875 22.875 C-5.93580085 20.8013441 -6.97309524 18.71564914 -8 16.625 C-8.58007812 15.46484375 -9.16015625 14.3046875 -9.7578125 13.109375 C-10.875 9.875 -10.875 9.875 -10.23046875 7.66015625 C-4.27304752 -0.18578467 -4.27304752 -0.18578467 0 0 Z " fill="#0A5EAD" transform="translate(287.875,211.125)"/>
<path d="M0 0 C1.32 0 2.64 0 4 0 C4.86640633 11.31141598 0.62903496 19.44909642 -5 29 C-6.32 27.68 -7.64 26.36 -9 25 C-7.90937628 21.45547291 -6.61956238 18.10872076 -5.0625 14.75 C-2.88575281 9.96441723 -1.39475333 5.06126397 0 0 Z " fill="#1061AF" transform="translate(295,214)"/>
<path d="M0 0 C5.14023972 1.76236791 8.65327278 4.09600635 11.8125 8.5625 C13.48264949 13.39714325 13.24335146 17.93468442 13 23 C10.36 23 7.72 23 5 23 C4.97421875 22.09378906 4.9484375 21.18757813 4.921875 20.25390625 C4.56909496 12.67715309 3.77451377 6.63612188 0 0 Z " fill="#1161AE" transform="translate(273,155)"/>
<path d="M0 0 C0 3 0 3 -1.42578125 5.16796875 C-3.47684047 8.85783955 -3.78304099 12.16030155 -4.1875 16.3125 C-4.26935547 17.05306641 -4.35121094 17.79363281 -4.43554688 18.55664062 C-4.63442588 20.36994923 -4.81869827 22.18484969 -5 24 C-7.64 24 -10.28 24 -13 24 C-12.57699252 10.92906887 -12.57699252 10.92906887 -8 6 C-5.4180603 3.86730793 -2.76300083 1.89118018 0 0 Z " fill="#0E5FAE" transform="translate(243,154)"/>
<path d="M0 0 C0.66 0 1.32 0 2 0 C2.11709643 3.52054914 2.1875469 7.04059112 2.25 10.5625 C2.28351563 11.55314453 2.31703125 12.54378906 2.3515625 13.56445312 C2.43678096 19.97714186 1.74243422 23.7473315 -2 29 C-4.64969037 26.35030963 -4.26142444 24.37449836 -4.2734375 20.76757812 C-4.26183594 19.55231445 -4.26183594 19.55231445 -4.25 18.3125 C-4.25773438 17.52166016 -4.26546875 16.73082031 -4.2734375 15.91601562 C-4.25467515 10.23571491 -4.22664069 4.22664069 0 0 Z " fill="#1261AF" transform="translate(214,269)"/>
<path d="M0 0 C4.24964413 1.41654804 5.10301114 4.46315382 7 8.25 C7.6863399 9.58913688 8.3738187 10.92769073 9.0625 12.265625 C9.38863281 12.90306641 9.71476562 13.54050781 10.05078125 14.19726562 C11.27515476 16.52256758 12.61527531 18.76713144 14 21 C8.05617046 19.95420371 3.97812426 15.44650771 0.30078125 10.8984375 C-2.33440498 7.04312394 -2.33440498 7.04312394 -3 5 C-2.23726266 2.97693 -1.53039087 1.53039087 0 0 Z " fill="#1563B0" transform="translate(272,222)"/>
<path d="M0 0 C3.66666667 3.66666667 7.33333333 7.33333333 11 11 C9.6190998 14.33717549 8.1798762 16.22301036 5 18 C2.8125 17.8125 2.8125 17.8125 1 17 C-0.53266582 13.93466836 -0.10276471 10.73245728 -0.0625 7.375 C-0.05798828 6.66859375 -0.05347656 5.9621875 -0.04882812 5.234375 C-0.03703875 3.48954725 -0.01910324 1.744763 0 0 Z " fill="#0D5FAD" transform="translate(267,231)"/>
<path d="M0 0 C3.23729641 2.95579238 3.94317483 5.02741543 4.203125 9.4765625 C4.34620696 17.27076396 4.12229511 23.71464475 1 31 C0.01 30.01 -0.98 29.02 -2 28 C-1.67 27.67 -1.34 27.34 -1 27 C-0.92478254 25.16939495 -0.91685252 23.3359396 -0.9375 21.50390625 C-0.94523438 20.38822266 -0.95296875 19.27253906 -0.9609375 18.12304688 C-0.98693632 15.75325474 -1.01297784 13.38346307 -1.0390625 11.01367188 C-1.04679688 9.89669922 -1.05453125 8.77972656 -1.0625 7.62890625 C-1.07410156 6.59838135 -1.08570313 5.56785645 -1.09765625 4.50610352 C-1 2 -1 2 0 0 Z " fill="#1463B0" transform="translate(250,311)"/>
<path d="M0 0 C2.06067355 3.40410174 2.25719096 6.06128319 2.265625 10.0078125 C2.26820313 11.15894531 2.27078125 12.31007813 2.2734375 13.49609375 C2.26570313 14.69363281 2.25796875 15.89117187 2.25 17.125 C2.25773437 18.33027344 2.26546875 19.53554688 2.2734375 20.77734375 C2.26957031 22.50017578 2.26957031 22.50017578 2.265625 24.2578125 C2.26336914 25.3111377 2.26111328 26.36446289 2.25878906 27.44970703 C2 30 2 30 0 32 C-2.89195331 26.31555209 -3.46455935 21.77133615 -3.375 15.4375 C-3.38660156 14.61314453 -3.39820313 13.78878906 -3.41015625 12.93945312 C-3.38583494 7.86846028 -2.71688427 4.43470263 0 0 Z " fill="#1D67B2" transform="translate(264,310)"/>
<path d="M0 0 C9.57 0 19.14 0 29 0 C29 0.66 29 1.32 29 2 C23.29467989 3.95060269 18.25398282 4.2756574 12.25 4.1875 C10.97576172 4.1865332 10.97576172 4.1865332 9.67578125 4.18554688 C6.12996715 4.16033967 3.39340416 4.13113472 0 3 C0 2.01 0 1.02 0 0 Z " fill="#0D5FAD" transform="translate(289,278)"/>
<path d="M0 0 C1.65322266 0.01740234 1.65322266 0.01740234 3.33984375 0.03515625 C4.99693359 0.04869141 4.99693359 0.04869141 6.6875 0.0625 C7.54214844 0.07410156 8.39679688 0.08570313 9.27734375 0.09765625 C8.02757619 3.75082296 7.60635622 4.87831461 4.27734375 7.09765625 C2.015625 7.29296875 2.015625 7.29296875 -0.41015625 7.22265625 C-1.62251953 7.19558594 -1.62251953 7.19558594 -2.859375 7.16796875 C-3.78169922 7.13316406 -3.78169922 7.13316406 -4.72265625 7.09765625 C-3.68524525 0.1321824 -3.68524525 0.1321824 0 0 Z " fill="#ECEFF7" transform="translate(269.72265625,190.90234375)"/>
<path d="M0 0 C9.09504429 -0.62485037 9.09504429 -0.62485037 12.625 1.8125 C14 4 14 4 14 7 C4.90495571 7.62485037 4.90495571 7.62485037 1.375 5.1875 C0 3 0 3 0 0 Z " fill="#EAEDF6" transform="translate(238,191)"/>
<path d="M0 0 C4.62 0 9.24 0 14 0 C14.33 1.32 14.66 2.64 15 4 C14 5 14 5 11.05859375 5.09765625 C9.26615234 5.08025391 9.26615234 5.08025391 7.4375 5.0625 C5.64119141 5.04896484 5.64119141 5.04896484 3.80859375 5.03515625 C2.88175781 5.02355469 1.95492187 5.01195312 1 5 C0.67 3.35 0.34 1.7 0 0 Z " fill="#2468B3" transform="translate(193,274)"/>
<path d="M0 0 C1.79244141 0.01740234 1.79244141 0.01740234 3.62109375 0.03515625 C5.41740234 0.04869141 5.41740234 0.04869141 7.25 0.0625 C8.17683594 0.07410156 9.10367188 0.08570313 10.05859375 0.09765625 C10.62109375 2.03515625 10.62109375 2.03515625 11.05859375 4.09765625 C10.05859375 5.09765625 10.05859375 5.09765625 7.1171875 5.1953125 C5.32474609 5.17791016 5.32474609 5.17791016 3.49609375 5.16015625 C1.69978516 5.14662109 1.69978516 5.14662109 -0.1328125 5.1328125 C-1.05964844 5.12121094 -1.98648438 5.10960937 -2.94140625 5.09765625 C-3.50390625 3.16015625 -3.50390625 3.16015625 -3.94140625 1.09765625 C-2.94140625 0.09765625 -2.94140625 0.09765625 0 0 Z " fill="#1D68B2" transform="translate(196.94140625,287.90234375)"/>
<path d="M0 0 C1.79244141 0.01740234 1.79244141 0.01740234 3.62109375 0.03515625 C5.41740234 0.04869141 5.41740234 0.04869141 7.25 0.0625 C8.17683594 0.07410156 9.10367188 0.08570313 10.05859375 0.09765625 C10.62109375 2.03515625 10.62109375 2.03515625 11.05859375 4.09765625 C10.05859375 5.09765625 10.05859375 5.09765625 7.1171875 5.1953125 C5.32474609 5.17791016 5.32474609 5.17791016 3.49609375 5.16015625 C1.69978516 5.14662109 1.69978516 5.14662109 -0.1328125 5.1328125 C-1.05964844 5.12121094 -1.98648438 5.10960937 -2.94140625 5.09765625 C-3.50390625 3.16015625 -3.50390625 3.16015625 -3.94140625 1.09765625 C-2.94140625 0.09765625 -2.94140625 0.09765625 0 0 Z " fill="#1D68B3" transform="translate(196.94140625,280.90234375)"/>
<path d="M0 0 C1.32 0.99 2.64 1.98 4 3 C3.52753358 7.25219775 1.22727623 9.37314725 -2 12 C-4.3125 11.8125 -4.3125 11.8125 -6 11 C-4.54955729 6.89041233 -2.48889248 3.56741255 0 0 Z " fill="#1563B0" transform="translate(239,220)"/>
<path d="M0 0 C4.95 0 9.9 0 15 0 C15 1.32 15 2.64 15 4 C10.38 4 5.76 4 1 4 C0.67 2.68 0.34 1.36 0 0 Z " fill="#085DAD" transform="translate(192,296)"/>
<path d="M0 0 C1.3303125 0.4021875 1.3303125 0.4021875 2.6875 0.8125 C1.19483258 4.61201706 -0.86531135 6.6479862 -4.3125 8.8125 C-7.125 8.5625 -7.125 8.5625 -9.3125 7.8125 C-7.69699682 2.96599047 -5.35369059 -0.30303909 0 0 Z " fill="#1562AF" transform="translate(284.3125,244.1875)"/>
<path d="M0 0 C2.625 0.375 2.625 0.375 5 1 C5.625 3.375 5.625 3.375 6 6 C5.34 6.66 4.68 7.32 4 8 C1.375 7.625 1.375 7.625 -1 7 C-1.625 4.625 -1.625 4.625 -2 2 C-1.34 1.34 -0.68 0.68 0 0 Z " fill="#DCE2F1" transform="translate(220,152)"/>
<path d="M0 0 C2.625 0.375 2.625 0.375 5 1 C5.38218767 2.65614657 5.71395102 4.32457024 6 6 C5 7 5 7 1.9375 7.0625 C0.968125 7.041875 -0.00125 7.02125 -1 7 C-1.625 4.625 -1.625 4.625 -2 2 C-1.34 1.34 -0.68 0.68 0 0 Z " fill="#E4E8F4" transform="translate(256,286)"/>
<path d="M0 0 C1.67542976 0.28604898 3.34385343 0.61781233 5 1 C5.625 3.375 5.625 3.375 6 6 C5.34 6.66 4.68 7.32 4 8 C1.375 7.625 1.375 7.625 -1 7 C-1.04254356 5.00045254 -1.04080783 2.99958364 -1 1 C-0.67 0.67 -0.34 0.34 0 0 Z " fill="#E5E9F5" transform="translate(187,135)"/>
<path d="M0 0 C1.67542976 0.28604898 3.34385343 0.61781233 5 1 C5 2.98 5 4.96 5 7 C2.625 7.625 2.625 7.625 0 8 C-0.66 7.34 -1.32 6.68 -2 6 C-1.44444444 1.44444444 -1.44444444 1.44444444 0 0 Z " fill="#E3E8F4" transform="translate(215,134)"/>
<path d="M0 0 C2.0625 0.4375 2.0625 0.4375 4 1 C4.29296875 7.0546875 4.29296875 7.0546875 4 9 C3.01 9.66 2.02 10.32 1 11 C-1 9 -1 9 -1.23046875 7.08984375 C-1.11111111 1.11111111 -1.11111111 1.11111111 0 0 Z " fill="#3975BA" transform="translate(194,164)"/>
<path d="M0 0 C1.98 0.495 1.98 0.495 4 1 C4 3.97 4 6.94 4 10 C2.35 9.67 0.7 9.34 -1 9 C-1.125 2.25 -1.125 2.25 0 0 Z " fill="#3573B9" transform="translate(207,164)"/>
<path d="M0 0 C0.625 2.375 0.625 2.375 1 5 C0.34 5.66 -0.32 6.32 -1 7 C-4.53571429 6.46428571 -4.53571429 6.46428571 -6 5 C-6.04063832 3.33382885 -6.042721 1.66611905 -6 0 C-3.50907189 -1.24546405 -2.58919267 -0.7767578 0 0 Z " fill="#EEF1F8" transform="translate(187,154)"/>
<path d="M0 0 C0.625 2.375 0.625 2.375 1 5 C0.34 5.66 -0.32 6.32 -1 7 C-4.53571429 6.46428571 -4.53571429 6.46428571 -6 5 C-6.04063832 3.33382885 -6.042721 1.66611905 -6 0 C-3.50907189 -1.24546405 -2.58919267 -0.7767578 0 0 Z " fill="#EEF0F8" transform="translate(211,131)"/>
<path d="M0 0 C2.125 0.375 2.125 0.375 4 1 C4.625 3.375 4.625 3.375 5 6 C4.34 6.66 3.68 7.32 3 8 C0.875 7.625 0.875 7.625 -1 7 C-1.625 4.625 -1.625 4.625 -2 2 C-1.34 1.34 -0.68 0.68 0 0 Z " fill="#F2F4FA" transform="translate(224,247)"/>
<path d="M0 0 C1.66611905 -0.042721 3.33382885 -0.04063832 5 0 C6 1 6 1 6.0625 3.5625 C6.041875 4.366875 6.02125 5.17125 6 6 C3.625 6.625 3.625 6.625 1 7 C0.34 6.34 -0.32 5.68 -1 5 C-0.625 2.375 -0.625 2.375 0 0 Z " fill="#F3F5FA" transform="translate(181,144)"/>
<path d="M0 0 C2.625 0.375 2.625 0.375 5 1 C5.042721 2.66611905 5.04063832 4.33382885 5 6 C4 7 4 7 1.4375 7.0625 C0.2309375 7.0315625 0.2309375 7.0315625 -1 7 C-1.625 4.625 -1.625 4.625 -2 2 C-1.34 1.34 -0.68 0.68 0 0 Z " fill="#F7F8FC" transform="translate(220,143)"/>
<path d="M0 0 C1.67542976 0.28604898 3.34385343 0.61781233 5 1 C5 2.65 5 4.3 5 6 C2.625 6.625 2.625 6.625 0 7 C-0.66 6.34 -1.32 5.68 -2 5 C-1.46428571 1.46428571 -1.46428571 1.46428571 0 0 Z " fill="#1F68B2" transform="translate(242,332)"/>
<path d="M0 0 C2.125 0.375 2.125 0.375 4 1 C4.38218767 2.65614657 4.71395102 4.32457024 5 6 C4 7 4 7 1.4375 7.0625 C0.2309375 7.0315625 0.2309375 7.0315625 -1 7 C-1.625 4.625 -1.625 4.625 -2 2 C-1.34 1.34 -0.68 0.68 0 0 Z " fill="#1E67B2" transform="translate(270,306)"/>
<path d="M0 0 C1.67542976 0.28604898 3.34385343 0.61781233 5 1 C5.625 2.875 5.625 2.875 6 5 C5.34 5.66 4.68 6.32 4 7 C1.375 6.625 1.375 6.625 -1 6 C-1.042721 4.33388095 -1.04063832 2.66617115 -1 1 C-0.67 0.67 -0.34 0.34 0 0 Z " fill="#1A65B1" transform="translate(296,284)"/>
<path d="M0 0 C1.67542976 0.28604898 3.34385343 0.61781233 5 1 C5 2.65 5 4.3 5 6 C2.625 6.625 2.625 6.625 0 7 C-0.66 6.34 -1.32 5.68 -2 5 C-1.46428571 1.46428571 -1.46428571 1.46428571 0 0 Z " fill="#FAFAFD" transform="translate(196,130)"/>
<path d="M0 0 C1.67542976 0.28604898 3.34385343 0.61781233 5 1 C5 2.65 5 4.3 5 6 C2.625 6.625 2.625 6.625 0 7 C-0.66 6.34 -1.32 5.68 -2 5 C-1.46428571 1.46428571 -1.46428571 1.46428571 0 0 Z " fill="#1864B0" transform="translate(287,284)"/>
<path d="M0 0 C1.67542976 0.28604898 3.34385343 0.61781233 5 1 C5.625 2.875 5.625 2.875 6 5 C5.34 5.66 4.68 6.32 4 7 C1.875 6.625 1.875 6.625 0 6 C-0.38218767 4.34385343 -0.71395102 2.67542976 -1 1 C-0.67 0.67 -0.34 0.34 0 0 Z " fill="#1663B0" transform="translate(269,332)"/>
<path d="M0 0 C2.0625 0.4375 2.0625 0.4375 4 1 C4.625 2.875 4.625 2.875 5 5 C4.34 5.66 3.68 6.32 3 7 C0.375 6.625 0.375 6.625 -2 6 C-1.125 1.125 -1.125 1.125 0 0 Z " fill="#1663B0" transform="translate(270,323)"/>
<path d="M0 0 C1.67542976 0.28604898 3.34385343 0.61781233 5 1 C5.625 2.875 5.625 2.875 6 5 C5.34 5.66 4.68 6.32 4 7 C1.875 6.625 1.875 6.625 0 6 C-0.38218767 4.34385343 -0.71395102 2.67542976 -1 1 C-0.67 0.67 -0.34 0.34 0 0 Z " fill="#1663B0" transform="translate(269,315)"/>
<path d="M0 0 C2.0625 0.4375 2.0625 0.4375 4 1 C4.33 2.65 4.66 4.3 5 6 C2.625 6.625 2.625 6.625 0 7 C-0.66 6.34 -1.32 5.68 -2 5 C-1.46428571 1.46428571 -1.46428571 1.46428571 0 0 Z " fill="#1B66B1" transform="translate(242,306)"/>
<path d="M0 0 C1.67542976 0.28604898 3.34385343 0.61781233 5 1 C5 2.65 5 4.3 5 6 C2.625 6.625 2.625 6.625 0 7 C-0.66 6.34 -1.32 5.68 -2 5 C-1.46428571 1.46428571 -1.46428571 1.46428571 0 0 Z " fill="#1462AF" transform="translate(306,284)"/>
<path d="M0 0 C0.99 0.33 1.98 0.66 3 1 C3 3.97 3 6.94 3 10 C2.01 10.33 1.02 10.66 0 11 C-1.62651522 7.74696956 -1.11453156 4.60774398 -1 1 C-0.67 0.67 -0.34 0.34 0 0 Z " fill="#1161AF" transform="translate(201,164)"/>
<path d="M0 0 C1.67542976 0.28604898 3.34385343 0.61781233 5 1 C5 2.65 5 4.3 5 6 C3.34385343 6.38218767 1.67542976 6.71395102 0 7 C-1 6 -1 6 -1.125 3.5 C-1 1 -1 1 0 0 Z " fill="#1261AF" transform="translate(315,284)"/>
<path d="M0 0 C-0.3315629 3.0945871 -1.02882594 4.02804686 -3.3125 6.25 C-6 8 -6 8 -10 8 C-8.18341255 3.37595922 -5.13109685 0 0 0 Z " fill="#2068B2" transform="translate(327,169)"/>
<path d="M0 0 C-1.48781815 3.78717347 -3.61988409 5.77407001 -7 8 C-7.99 7.67 -8.98 7.34 -10 7 C-7.88268985 1.88316713 -5.59548444 0 0 0 Z " fill="#1A64B0" transform="translate(336,179)"/>
<path d="M0 0 C-0.33589994 3.13506611 -1.02665172 4.025249 -3.375 6.25 C-6 8 -6 8 -9 8 C-8.66410006 4.86493389 -7.97334828 3.974751 -5.625 1.75 C-3 0 -3 0 0 0 Z " fill="#1361AF" transform="translate(331,174)"/>
<path d="M0 0 C-0.3358407 3.10652645 -0.59049279 4.60414303 -2.875 6.8125 C-5 8 -5 8 -8 8 C-7.65978036 4.82461668 -6.97533396 3.97723135 -4.5625 1.75 C-2 0 -2 0 0 0 Z " fill="#1F67B2" transform="translate(339,183)"/>
<path d="M0 0 C1.67542976 0.28604898 3.34385343 0.61781233 5 1 C4.67 2.65 4.34 4.3 4 6 C2.35 5.67 0.7 5.34 -1 5 C-1 1 -1 1 0 0 Z " fill="#0A5EAD" transform="translate(242,315)"/>
<path d="M0 0 C0.99 0 1.98 0 3 0 C3 2.97 3 5.94 3 9 C1.68 9 0.36 9 -1 9 C-1.125 2.25 -1.125 2.25 0 0 Z " fill="#276AB4" transform="translate(188,165)"/>
<path d="M0 0 C1.65 0 3.3 0 5 0 C5.33 1.65 5.66 3.3 6 5 C4.34385343 5.38218767 2.67542976 5.71395102 1 6 C0 5 0 5 -0.0625 2.4375 C-0.041875 1.633125 -0.02125 0.82875 0 0 Z " fill="#055CAC" transform="translate(241,324)"/>
<path d="M0 0 C0.66 0.33 1.32 0.66 2 1 C0.78934835 4.63195496 -0.53691126 5.42896192 -3.5625 7.6875 C-4.38878906 8.31011719 -5.21507812 8.93273437 -6.06640625 9.57421875 C-6.70449219 10.04472656 -7.34257812 10.51523437 -8 11 C-8.66 10.34 -9.32 9.68 -10 9 C-6.7 6.03 -3.4 3.06 0 0 Z " fill="#E6EAF5" transform="translate(237,267)"/>
<path d="M0 0 C1.65 0 3.3 0 5 0 C5 1.65 5 3.3 5 5 C3.125 5.625 3.125 5.625 1 6 C0.34 5.34 -0.32 4.68 -1 4 C-0.625 1.875 -0.625 1.875 0 0 Z " fill="#2269B3" transform="translate(269,341)"/>
<path d="M0 0 C1.67542976 0.28604898 3.34385343 0.61781233 5 1 C4.67 2.32 4.34 3.64 4 5 C2.68 5.33 1.36 5.66 0 6 C-0.38218767 4.34385343 -0.71395102 2.67542976 -1 1 C-0.67 0.67 -0.34 0.34 0 0 Z " fill="#1964B1" transform="translate(242,341)"/>
<path d="M0 0 C1.98 0 3.96 0 6 0 C6 1.32 6 2.64 6 4 C4.02 4 2.04 4 0 4 C0 2.68 0 1.36 0 0 Z " fill="#3771B8" transform="translate(199,266)"/>
<path d="M0 0 C1.32 0.66 2.64 1.32 4 2 C3.34 3.32 2.68 4.64 2 6 C0.68 5.34 -0.64 4.68 -2 4 C-1.34 2.68 -0.68 1.36 0 0 Z " fill="#0E5FAD" transform="translate(257,177)"/>
<path d="M0 0 C-1.3125 2.5 -1.3125 2.5 -3 5 C-3.99 5 -4.98 5 -6 5 C-6.33 3.68 -6.66 2.36 -7 1 C-4.53721199 -0.231394 -2.7204945 -0.07159196 0 0 Z " fill="#1B65B1" transform="translate(320,158)"/>
<path d="M0 0 C1.32 0 2.64 0 4 0 C4 2.31 4 4.62 4 7 C3.34 7 2.68 7 2 7 C0.5393715 4.35261084 0 3.10551666 0 0 Z " fill="#1562AF" transform="translate(201,305)"/>
<path d="M0 0 C0.99 0 1.98 0 3 0 C2.59316505 2.35964273 2.10185661 3.85934088 0.6875 5.8125 C-1 7 -1 7 -3.1875 6.6875 C-3.785625 6.460625 -4.38375 6.23375 -5 6 C-4 4 -4 4 -1 3 C-0.67 2.01 -0.34 1.02 0 0 Z " fill="#D2DAED" transform="translate(247,317)"/>
</svg>
